<?xml version="1.0" encoding="UTF-8" standalone="no"?><!DOCTYPE svg PUBLIC "-//W3C//DTD SVG 1.1//EN" "http://www.w3.org/Graphics/SVG/1.1/DTD/svg11.dtd"><svg width="100%" height="100%" viewBox="0 0 2084 2084" version="1.1" xmlns="http://www.w3.org/2000/svg" xmlns:xlink="http://www.w3.org/1999/xlink" xml:space="preserve" xmlns:serif="http://www.serif.com/" style="fill-rule:evenodd;clip-rule:evenodd;stroke-linejoin:round;stroke-miterlimit:2;"><g><clipPath id="_clip1"><rect x="747.157" y="607.617" width="287.5" height="431.272"/></clipPath><g clip-path="url(#_clip1)"><path d="M1034.7,1022.44l-0,-293.381c-0,-6.64 -3.69,-12.543 -9.224,-14.735l-259.961,-102.908c-8.94,-3.537 -18.272,3.993 -18.272,14.735l-0,293.403c-0,6.619 3.689,12.543 9.223,14.735l259.961,102.887c8.941,3.537 18.273,-3.994 18.273,-14.736" style="fill:#145da0;fill-rule:nonzero;"/></g></g><g><clipPath id="_clip2"><rect x="747.157" y="950" width="287.5" height="431.532"/></clipPath><g clip-path="url(#_clip2)"><path d="M1034.7,1363.04l-0,-293.382c-0,-6.64 -3.69,-12.565 -9.224,-14.735l-259.961,-102.908c-8.94,-3.537 -18.272,3.993 -18.272,14.735l-0,293.382c-0,6.64 3.689,12.565 9.223,14.757l259.961,102.886c8.941,3.537 18.273,-3.993 18.273,-14.735" style="fill:#145da0;fill-rule:nonzero;"/></g></g><g><clipPath id="_clip3"><rect x="747.157" y="1288.89" width="287.5" height="431.988"/></clipPath><g clip-path="url(#_clip3)"><path d="M1034.7,1702.39l-0,-293.381c-0,-6.641 -3.69,-12.565 -9.224,-14.735l-259.961,-102.908c-8.94,-3.537 -18.272,3.993 -18.272,14.735l-0,293.381c-0,6.641 3.689,12.565 9.223,14.735l259.961,102.908c8.941,3.538 18.273,-3.993 18.273,-14.735" style="fill:#145da0;fill-rule:nonzero;"/></g></g><g><clipPath id="_clip4"><rect x="445.334" y="494.444" width="287.5" height="427.778"/></clipPath><g clip-path="url(#_clip4)"><path d="M732.878,906.467l-0,-293.381c-0,-6.641 -3.69,-12.565 -9.223,-14.735l-259.983,-102.908c-8.919,-3.538 -18.273,3.993 -18.273,14.735l0,293.381c0,6.641 3.711,12.565 9.223,14.735l259.983,102.908c8.941,3.538 18.273,-3.993 18.273,-14.735" style="fill:#145da0;fill-rule:nonzero;"/></g></g><g><clipPath id="_clip5"><rect x="147.83" y="373.958" width="287.5" height="431.597"/></clipPath><g clip-path="url(#_clip5)"><path d="M435.373,788.802l0,-293.381c0,-6.641 -3.711,-12.565 -9.223,-14.735l-259.982,-102.908c-8.92,-3.538 -18.273,3.993 -18.273,14.735l-0,293.381c-0,6.641 3.711,12.565 9.223,14.757l259.983,102.886c8.941,3.538 18.272,-3.993 18.272,-14.735" style="fill:#145da0;fill-rule:nonzero;"/></g></g><g><clipPath id="_clip6"><rect x="1045.42" y="607.617" width="287.5" height="431.272"/></clipPath><g clip-path="url(#_clip6)"><path d="M1045.38,1022.44l-0,-293.381c-0,-6.64 3.711,-12.543 9.223,-14.735l259.982,-102.908c8.92,-3.537 18.273,3.993 18.273,14.735l-0,293.403c-0,6.619 -3.711,12.543 -9.223,14.735l-259.983,102.887c-8.941,3.537 -18.272,-3.994 -18.272,-14.736" style="fill:#eeba2b;fill-rule:nonzero;"/></g></g><g><clipPath id="_clip7"><rect x="1348.13" y="484.484" width="287.5" height="432.183"/></clipPath><g clip-path="url(#_clip7)"><path d="M1348.09,899.327l0,-293.381c0,-6.64 3.711,-12.565 9.223,-14.735l259.983,-102.908c8.941,-3.537 18.273,3.993 18.273,14.735l-0,293.403c-0,6.619 -3.69,12.543 -9.224,14.735l-259.982,102.887c-8.919,3.537 -18.273,-3.994 -18.273,-14.736" style="fill:#eeba2b;fill-rule:nonzero;"/></g></g><g><clipPath id="_clip8"><rect x="1647.98" y="366.667" width="287.5" height="430.816"/></clipPath><g clip-path="url(#_clip8)"><path d="M1647.94,778.993l0,-293.381c0,-6.641 3.69,-12.565 9.223,-14.735l259.961,-102.908c8.941,-3.538 18.273,3.993 18.273,14.735l-0,293.381c-0,6.641 -3.689,12.565 -9.223,14.735l-259.961,102.908c-8.941,3.538 -18.273,-3.993 -18.273,-14.735" style="fill:#eeba2b;fill-rule:nonzero;"/></g></g><g><clipPath id="_clip9"><rect x="1045.42" y="950" width="287.5" height="431.532"/></clipPath><g clip-path="url(#_clip9)"><path d="M1045.38,1363.04l-0,-293.382c-0,-6.64 3.711,-12.565 9.223,-14.735l259.982,-102.908c8.92,-3.537 18.273,3.993 18.273,14.735l-0,293.382c-0,6.64 -3.711,12.565 -9.223,14.757l-259.983,102.886c-8.941,3.537 -18.272,-3.993 -18.272,-14.735" style="fill:#eeba2b;fill-rule:nonzero;"/></g></g><g><clipPath id="_clip10"><rect x="1045.42" y="1288.89" width="287.5" height="431.988"/></clipPath><g clip-path="url(#_clip10)"><path d="M1045.38,1702.39l-0,-293.381c-0,-6.641 3.711,-12.565 9.223,-14.735l259.982,-102.908c8.92,-3.537 18.273,3.993 18.273,14.735l-0,293.381c-0,6.641 -3.711,12.565 -9.223,14.735l-259.983,102.908c-8.941,3.538 -18.272,-3.993 -18.272,-14.735" style="fill:#eeba2b;fill-rule:nonzero;"/></g></g><g><clipPath id="_clip11"><rect x="445.334" y="833.333" width="287.5" height="432.313"/></clipPath><g clip-path="url(#_clip11)"><path d="M732.878,1247.16l-0,-293.381c-0,-6.641 -3.69,-12.565 -9.223,-14.735l-259.983,-102.908c-8.919,-3.537 -18.273,3.993 -18.273,14.735l0,293.381c0,6.641 3.711,12.565 9.223,14.757l259.983,102.886c8.941,3.538 18.273,-3.993 18.273,-14.735" style="fill:#145da0;fill-rule:nonzero;"/></g></g></svg>