<?xml version="1.0" encoding="UTF-8" standalone="no"?><!DOCTYPE svg PUBLIC "-//W3C//DTD SVG 1.1//EN" "http://www.w3.org/Graphics/SVG/1.1/DTD/svg11.dtd"><svg width="100%" height="100%" viewBox="0 0 1875 1875" version="1.1" xmlns="http://www.w3.org/2000/svg" xmlns:xlink="http://www.w3.org/1999/xlink" xml:space="preserve" xmlns:serif="http://www.serif.com/" style="fill-rule:evenodd;clip-rule:evenodd;stroke-linejoin:round;stroke-miterlimit:2;"><g><path d="M321.846,1434.08c-0,0 -78.183,62.425 -5.063,140.529l352.509,-103.825l-347.446,-36.704Z" style="fill:#3f90a8;fill-rule:nonzero;"/><path d="M1522.12,1462.74l-622.45,190.309l-582.917,-78.408l38.346,-12.213l589.988,-189.158l0.425,-0l277.333,57.979l270.783,28.491l28.492,3Z" style="fill:#3f90a8;fill-rule:nonzero;"/><path d="M1515.7,1350.48l-31.921,15.854l31.704,-11.354l-0.216,9.213l-119.967,51.196l119.754,-46.7l-1.712,46.916l-46.059,20.138l45.842,-12.213l-1.071,29.779l-18.421,6.425l-592.033,179.601l-1.496,-0.217l-545,-76.696l-28.491,-4.071c-14.992,-36.846 -12.209,-75.621 4.283,-115.896l614.196,-69.191l0.425,-0l541.687,-32.638l28.921,-3.212l-0.425,13.066Z" style="fill:#f4f1e5;fill-rule:nonzero;"/><path d="M330.8,1442.36l638.221,-141.8l547.158,36.925l-602.475,183.213l-582.904,-78.338Z" style="fill:#f8dcc2;fill-rule:nonzero;"/><path d="M904.558,1519.47l-573.758,-77.109l19.842,-4.408l554.108,74.462l591.517,-176.274l19.504,1.316l-28.567,3.175l-122.579,42.017l-291.237,86.792l-168.571,43.074l-0.259,6.955Zm611.567,-181.967l-0,-0.021l0.054,0.004l-0.054,0.017Z" style="fill:#f1be94;fill-rule:nonzero;"/><path d="M321.846,1434.08l594.617,-126.379c28.808,-10.192 59.283,-14.858 89.82,-13.754l520.438,33.116l-621.971,185.35l-582.904,-78.333Z" style="fill:#3f90a8;fill-rule:nonzero;"/><path d="M899.675,1653.05l0.429,-13.925l1.496,0.217l592.033,-179.601l28.492,3l-622.45,190.309Z" style="fill:#3d7c80;fill-rule:nonzero;"/><path d="M901.6,1639.34l-1.496,-0.217l4.454,-119.654l9.146,1.229l215.217,-65.446l93.929,-24.004l117.912,-40.421l175.363,-53.325l-0.425,12.983l-31.921,15.854l31.704,-11.354l-0.216,9.213l-119.967,51.196l119.754,-46.7l-1.712,46.916l-46.059,20.138l45.842,-12.213l-1.071,29.779l-18.421,6.425l-592.033,179.601Z" style="fill:#edd0ae;fill-rule:nonzero;"/><path d="M1516.12,1337.48l-0.354,-0.025l0.354,-0.037l-0,0.062Z" style="fill:#edd0ae;fill-rule:nonzero;"/><path d="M913.704,1520.7l-9.146,-1.229l0.659,0.087l168.171,-50.116l55.533,-14.188l-215.217,65.446Zm427.058,-129.871l23.863,-8.179l151.5,-45.146l-175.363,53.325Z" style="fill:#f1be94;fill-rule:nonzero;"/><path d="M905.217,1519.55l-0.659,-0.087l0.259,-6.955l168.571,-43.074l-168.171,50.116Zm459.408,-136.908l122.579,-42.017l28.567,-3.175l0.354,0.025l-0,0.021l-151.5,45.146Z" style="fill:#eaa471;fill-rule:nonzero;"/><path d="M293.1,1269.41c0,0 -78.179,62.425 -5.063,140.53l352.509,-103.821l-347.446,-36.709Z" style="fill:#ec925d;fill-rule:nonzero;"/><path d="M1493.38,1298.07l-622.45,190.308l-582.916,-78.408l38.35,-12.209l589.983,-189.166l0.425,-0l277.333,57.987l270.783,28.488l28.492,3Z" style="fill:#ec925d;fill-rule:nonzero;"/><path d="M1486.95,1185.81l-31.921,15.854l31.709,-11.354l-0.217,9.208l-119.971,51.204l119.754,-46.7l-1.712,46.917l-46.059,20.133l45.842,-12.208l-1.071,29.775l-18.421,6.425l-592.029,179.595l-1.5,-0.212l-544.995,-76.692l-28.496,-4.07c-14.992,-36.851 -12.209,-75.625 4.287,-115.896l614.192,-69.2l0.425,-0l541.687,-32.638l28.921,-3.208l-0.425,13.067Z" style="fill:#f4f1e5;fill-rule:nonzero;"/><path d="M302.054,1277.69l638.221,-141.8l547.162,36.925l-602.474,183.212l-582.909,-78.337Z" style="fill:#f8dcc2;fill-rule:nonzero;"/><path d="M875.813,1354.8l-573.759,-77.108l19.846,-4.409l554.104,74.463l15.484,-4.613l1.987,0.267l-17.4,4.446l-0.262,6.954Z" style="fill:#f1be94;fill-rule:nonzero;"/><path d="M293.1,1269.41l594.621,-126.383c28.808,-10.188 59.283,-14.854 89.816,-13.75l520.438,33.117l-621.971,185.35l-582.904,-78.334Z" style="fill:#ec925d;fill-rule:nonzero;"/><path d="M870.929,1488.38l0.429,-13.925l1.5,0.212l536.5,-162.75c1.484,0.501 2.959,0.955 4.421,1.355c7.196,1.979 13.134,3.112 18.167,3.583l-561.017,171.525Zm591.592,-180.875c0.912,-0.658 1.841,-1.329 2.796,-2.008c3.3,-2.292 5.416,-5.792 5.387,-9.813l22.675,2.388l-30.858,9.433Z" style="fill:#e67e47;fill-rule:nonzero;"/><path d="M872.858,1474.66l-1.5,-0.212l4.455,-119.654l9.15,1.229l31.4,-9.55l43.854,5.9l88.566,-27.079c0.196,0.379 0.396,0.754 0.592,1.125l0.029,0.246c4.383,8.245 7.875,15.12 9.554,16.9c16.8,18.987 55.825,28.954 71.8,28.954c2.3,-0 4.125,-0.204 5.334,-0.621c33.916,-11.608 0.262,-31.325 -20.921,-61.692c-0.592,-1.591 -1.15,-3.154 -1.671,-4.696l196.15,-59.974c-0.287,5.012 -0.467,9.162 -0.467,11.699c0,1.292 0.05,2.167 0.154,2.526c0.942,3.295 2.142,11.895 27.905,18.958l0.837,0.358c1.879,0.584 3.975,1.025 6.192,1.567c7.458,1.762 14.587,4.587 21.058,8.617c10.609,6.487 27.867,17.225 44.029,22.649l-536.5,162.75Zm597.546,-181.516c-0.829,-3.642 -3.417,-7.558 -8.4,-11.304c-3.041,-2.288 -9.171,-6.846 -16.567,-12.604l38.942,-10.371l-1.071,29.775l-12.904,4.504Zm-25.937,-24.663c-11.413,-8.916 -25.592,-20.512 -36.142,-31.033c-0.725,-0.725 -1.437,-1.45 -2.138,-2.183l80.121,-31.242l-1.712,46.917l-40.129,17.541Zm-39.263,-34.254c-4.667,-4.975 -8.666,-9.971 -11.846,-14.283l64.688,-19.775l-3.013,1.496l10.988,-3.938l20.692,-6.325l-0.188,8.117l-81.321,34.708Z" style="fill:#edd0ae;fill-rule:nonzero;"/><path d="M884.963,1356.03l-9.15,-1.229l0.662,0.087l31.846,-9.491l8.042,1.083l-31.4,9.55Z" style="fill:#f1be94;fill-rule:nonzero;"/><path d="M876.475,1354.88l-0.662,-0.087l0.262,-6.954l17.4,-4.446l14.846,1.996l-31.846,9.491Z" style="fill:#eaa471;fill-rule:nonzero;"/><path d="M382.388,1133.41c-0,0 -78.18,62.425 -5.063,140.534l352.508,-103.83l-347.445,-36.704Z" style="fill:#a64c49;fill-rule:nonzero;"/><path d="M1582.67,1162.07l-622.45,190.308l-582.913,-78.408l38.346,-12.213l589.987,-189.162l0.426,-0l277.329,57.983l270.783,28.492l28.492,3Z" style="fill:#a64c49;fill-rule:nonzero;"/><path d="M1576.24,1049.81l-31.921,15.85l31.708,-11.35l-0.216,9.208l-119.971,51.204l119.754,-46.7l-1.713,46.913l-46.058,20.137l45.846,-12.213l-1.075,29.78l-18.421,6.425l-592.029,179.596l-1.5,-0.213l-544.996,-76.696l-28.496,-4.066c-14.991,-36.85 -12.208,-75.625 4.288,-115.9l614.195,-69.196l0.426,-0l541.687,-32.634l28.921,-3.212l-0.429,13.067Z" style="fill:#f4f1e5;fill-rule:nonzero;"/><path d="M391.342,1141.69l638.221,-141.8l547.162,36.925l-602.475,183.212l-582.908,-78.337Z" style="fill:#f8dcc2;fill-rule:nonzero;"/><path d="M965.104,1218.8l-573.762,-77.108l19.85,-4.409l554.1,74.463l69.908,-20.829l19.6,-3.08c-0.296,0.467 -0.592,0.929 -0.879,1.379l-88.559,22.63l-0.258,6.954Z" style="fill:#f1be94;fill-rule:nonzero;"/><path d="M382.388,1133.41l594.616,-126.383c28.813,-10.188 59.283,-14.854 89.821,-13.754l520.442,33.121l-621.975,185.35l-582.904,-78.334Z" style="fill:#a64c49;fill-rule:nonzero;"/><path d="M960.217,1352.38l0.429,-13.925l1.5,0.213l80.666,-24.471c2.075,3.758 4.092,7.55 5.971,11.104l-88.566,27.079Zm153.283,-46.863c-1.383,-4.066 -2.542,-7.97 -3.504,-11.7l200.462,-60.812c-0.308,4.458 -0.587,8.746 -0.808,12.538l-196.15,59.974Zm279.858,-85.566c-0.366,-0.496 -0.716,-0.979 -1.062,-1.454c-0.038,-0.088 -0.063,-0.134 -0.063,-0.134c-0.17,-0.221 -0.341,-0.441 -0.508,-0.662c-0.775,-1.088 -1.492,-2.121 -2.142,-3.079c0.713,-0.73 1.304,-1.488 1.771,-2.275c-0.162,-1.075 -0.291,-2.334 -0.392,-3.763l163.213,-49.512l28.492,3l-95.954,29.337l-20.692,6.325l-72.663,22.217Z" style="fill:#a14238;fill-rule:nonzero;"/><path d="M962.146,1338.66l-1.5,-0.213l4.458,-119.654l9.146,1.229l74.471,-22.646c-2.413,3.788 -3.717,5.846 -3.717,5.846c-1.916,2.729 -2.321,6.133 -1.554,9.925c-16.042,13.071 -33.704,28.075 -35.779,32.379c-0.6,1.25 -0.875,2.95 -0.875,4.967c-0,11.054 8.358,31.546 17.954,38.062c5.163,3.546 11.879,14.446 18.062,25.634l-80.666,24.471Zm147.85,-44.851c-1.738,-6.741 -2.834,-12.941 -3.479,-18.595c-0.459,-4.055 -0.688,-7.821 -0.75,-11.292c4.258,-0.258 7.729,-2.05 9.783,-5.75c3.692,-6.596 52.462,-47.237 101.683,-95.862l80.9,-12.709c5.155,31.884 9.88,61.638 12.617,79.292c-0.1,1.375 -0.196,2.75 -0.292,4.104l-200.462,60.812Zm200.817,-65.783c-0.142,-1.9 -0.238,-3.962 -0.3,-6.175c0.2,0.271 0.433,0.534 0.695,0.788c-0.133,1.787 -0.266,3.591 -0.395,5.387Zm80.149,-19.45c-0.912,-13.017 0.659,-40.279 2.855,-74.008l180.387,-28.338l-0.321,8.705l-46.058,20.137l45.846,-12.213l-1.075,29.78l-18.421,6.425l-163.213,49.512Z" style="fill:#edd0ae;fill-rule:nonzero;"/><path d="M974.25,1220.03l-9.146,-1.229l0.654,0.087l85.488,-25.475c-0.942,1.479 -1.788,2.809 -2.525,3.971l-74.471,22.646Z" style="fill:#f1be94;fill-rule:nonzero;"/><path d="M965.758,1218.88l-0.654,-0.087l0.258,-6.954l88.559,-22.63c-0.963,1.509 -1.854,2.909 -2.675,4.196l-85.488,25.475Z" style="fill:#eaa471;fill-rule:nonzero;"/><path d="M1594.87,1102.98l-46.459,-10.333l-327.4,-73.354l23.884,-3.646l35.166,-5.55l43.059,-6.904l220.833,-34.721l28.992,-4.471c-0,0 85.067,52.688 21.925,138.979Z" style="fill:#3f90a8;fill-rule:nonzero;"/><path d="M1594.87,1102.98l-575.846,90.467l-644.033,-119.079l282.354,-61.325l23.587,-5.775l129.467,-54.138l129.833,-31.883l136.284,40.338l186.429,43.341l15.383,4.592l1.733,0.579l2.167,0.567l273.858,80.85l38.784,11.466Z" style="fill:#3f90a8;fill-rule:nonzero;"/><path d="M422.496,1040.14l-48.125,-14.525l-7.284,-46.35l124.53,31.962l-125.23,-36.404l-1.441,-9.204l32.9,7.662l-33.596,-12.083l1208.78,2.825c22.888,86.021 20.721,85.625 10.109,123.85l-566.621,89.375l-636.275,-114.283l-4.646,-29.559l46.9,6.734Z" style="fill:#f8dcc2;fill-rule:nonzero;"/><path d="M1565.13,973.317l-648.504,-91.471l-554.392,66.558l627.038,115.442l575.858,-90.529Z" style="fill:#f8dcc2;fill-rule:nonzero;"/><path d="M998.462,1062.57l-0.491,-0.088l0.467,-0.071l0.024,0.159Z" style="fill:#f1be94;fill-rule:nonzero;"/><path d="M1573.04,964.067c-0.021,-0.017 -0.038,-0.025 -0.055,-0.038l0.042,-0.004l0.013,0.042Z" style="fill:#f1be94;fill-rule:nonzero;"/><path d="M997.971,1062.48l-635.734,-114.075l20.317,-2.437l614.563,108.575l1.321,7.866l-0.467,0.071Z" style="fill:#f1be94;fill-rule:nonzero;"/><path d="M1573.03,964.025l-603.367,-81.371c-29.82,-6.675 -60.633,-7.658 -90.82,-2.917l-527.38,60.734l645.713,114.083l575.854,-90.529Z" style="fill:#3f90a8;fill-rule:nonzero;"/><path d="M1594.87,1102.98l-37.4,-11.054l25.667,-4.054c10.416,-37.517 12.691,-37.837 -8.863,-119.171l-0.371,-1.396c-0.283,-1.066 -0.571,-2.15 -0.862,-3.241c2.283,1.446 45.175,29.271 45.15,76.641c-0.005,18.05 -6.242,38.938 -23.321,62.275Z" style="fill:#3d7c80;fill-rule:nonzero;"/><path d="M1019.02,1193.45l-2.508,-16.2l50.104,-7.904c-4.583,7.15 -8.563,13.383 -11.821,18.487l-35.775,5.617Zm198.208,-31.137c6.567,-6.488 13.134,-13.105 19.609,-19.817l58.637,-9.246c0.892,5.479 1.779,10.946 2.654,16.354l-80.9,12.709Zm176.584,-27.742c0.358,-5.508 0.737,-11.188 1.121,-17.009l162.533,-25.633l37.4,11.054l-201.054,31.588Z" style="fill:#3d7c80;fill-rule:nonzero;"/><path d="M1016.52,1177.25l-18.055,-114.683l28.588,-4.659l124.937,-19.641c-7.358,11.016 -14.6,22.091 -21.675,32.946c-6.845,10.262 -13.458,20.379 -19.858,30.22l-0.308,0.525c-16.929,26.004 -32.096,49.555 -43.525,67.388l-50.104,7.904Zm220.325,-34.754c18.321,-18.975 35.866,-38.609 50.229,-57.475c2.05,11.362 4.129,22.979 6.158,34.416c0.75,4.592 1.504,9.209 2.25,13.813l-58.637,9.246Zm158.096,-24.934c2.429,-36.795 5.212,-79.141 6.316,-118.483l163.879,-25.762l-10.266,-1.45l19.408,-3.163c21.554,81.334 19.279,81.654 8.863,119.171l-25.667,4.054l-162.533,25.633Zm178.966,-150.254l-0.862,-3.241c0.291,1.091 0.579,2.175 0.862,3.241Z" style="fill:#f1be94;fill-rule:nonzero;"/><path d="M1027.05,1057.91l125.479,-20.454c-0.179,0.271 -0.362,0.542 -0.542,0.813l-124.937,19.641Zm374.204,-58.829c0.021,-0.725 0.042,-1.454 0.059,-2.179l153.554,-25.033l10.266,1.45l-163.879,25.762Z" style="fill:#f1be94;fill-rule:nonzero;"/><path d="M998.462,1062.57l-0.024,-0.159l28.612,-4.5l-28.588,4.659Z" style="fill:#eaa471;fill-rule:nonzero;"/><path d="M1574.28,968.704c-0.125,-0.467 -0.246,-0.925 -0.371,-1.396l0.371,1.396Z" style="fill:#3b6b61;fill-rule:nonzero;"/><path d="M1554.87,971.867l-16.725,-2.359l34.845,-5.479c0.017,0.013 0.034,0.021 0.055,0.038l0.862,3.241c0.125,0.471 0.246,0.929 0.371,1.396l-19.408,3.163Z" style="fill:#eaa471;fill-rule:nonzero;"/><path d="M998.438,1062.41l-1.321,-7.866l0.058,0.012l146.563,-23.041c3.679,0.858 7.366,1.708 11.066,2.55c-0.129,0.149 -0.908,1.316 -2.233,3.329c-0.013,0.021 -0.025,0.041 -0.042,0.062l-125.479,20.454l-28.613,4.5Zm402.876,-65.508c0.054,-1.979 0.099,-3.942 0.145,-5.904l136.684,-21.488l16.725,2.359l-153.554,25.033Z" style="fill:#eaa471;fill-rule:nonzero;"/><path d="M1572.92,964.008l-0.004,0l0.025,-0.004l-0.021,0.004Z" style="fill:#f8dcc2;fill-rule:nonzero;"/><path d="M1572.96,964.017l-0.037,-0.009l0.021,-0.004c-0,0 0.008,0.004 0.016,0.013Z" style="fill:#3d7c80;fill-rule:nonzero;"/><path d="M997.175,1054.55l-0.058,-0.012l-0.013,-0.071l136.309,-25.404c3.433,0.825 6.875,1.637 10.325,2.446l-146.563,23.041Zm404.283,-63.558c0.029,-1.454 0.063,-2.904 0.088,-4.35l140.467,-18.529l30.908,-4.109l0.004,0l0.037,0.009c0.005,-0 0.013,0.008 0.025,0.012l-34.845,5.479l-136.684,21.488Z" style="fill:#3d7c80;fill-rule:nonzero;"/><path d="M1465.32,1305.49c-12.392,8.783 -19.721,16.521 -51.538,7.775c-17.358,-4.771 -36.866,-16.921 -48.45,-24.004c-6.471,-4.03 -13.6,-6.855 -21.058,-8.617c-2.217,-0.542 -4.313,-0.983 -6.192,-1.567l-0.837,-0.358c-25.763,-7.063 -26.963,-15.663 -27.905,-18.958c-1.12,-3.846 4.321,-67.888 4.321,-67.888l71.317,15.508c0,0 9.008,15.771 23.35,30.067c17.787,17.737 45.875,38.525 53.679,44.392c11.913,8.958 10.15,18.904 3.313,23.65Z" style="fill:#3b5765;fill-rule:nonzero;"/><path d="M1392.3,1218.49c-0.192,-0.267 -0.384,-0.534 -0.571,-0.796c0.167,0.221 0.338,0.441 0.508,0.662c0,0 0.025,0.046 0.063,0.134Z" style="fill:#7e362f;fill-rule:nonzero;"/><path d="M1337.24,1278.72c-25.763,-7.063 -26.963,-15.663 -27.905,-18.958c-0.104,-0.359 -0.154,-1.234 -0.154,-2.526c0,-5.041 0.713,-16.445 1.567,-28.341c0.112,0.725 0.221,1.433 0.329,2.116c-0.104,-0.941 -0.191,-1.937 -0.266,-2.983c0.129,-1.796 0.262,-3.6 0.395,-5.387c3.771,3.616 13.859,5.329 25.705,5.329c19.666,-0 44.179,-4.725 52.612,-13.292c0.658,0.938 1.392,1.946 2.2,3.017c0.187,0.262 0.379,0.529 0.571,0.796c0.662,1.5 5.204,15.45 -53.192,19.625c-38.317,2.737 -9.575,36.6 -1.862,40.604Z" style="fill:#2e4754;fill-rule:nonzero;"/><path d="M1401.7,958.783c-1.137,28.242 -19.213,36.875 -31.667,58.563c-8.546,-2.413 -21.437,-4.092 -37.304,-5.321c-14.821,-1.233 -32.375,-1.921 -51.312,-2.45c-96.942,-3.1 -232.167,-1.625 -252.167,-25.921c-5.396,-6.496 -29.225,-100.5 -33.029,-107.292c-8.046,-14.466 -12.3,-29.366 -12.692,-43.07c-0.608,-24.867 11.108,-45.884 34.971,-54.3c13.542,-4.917 31.179,-5.517 52.404,-0.238c4.338,1.642 10.808,-0.337 17.284,-2.321c6.25,-1.912 12.508,-3.82 16.891,-2.487c7.729,2.383 15.354,4.9 22.992,7.525c18.641,6.158 36.991,12.816 55.021,19.741c71.125,27.121 141.437,61.33 185.733,85.621c27.338,18.104 33.983,44.396 32.875,71.95Z" style="fill:#ec925d;fill-rule:nonzero;"/><path d="M1401.24,939.121c3.654,93.171 -14.121,245.154 -9.888,273.221c-9.971,16.862 -79.671,21.17 -81.683,7.533c-1.408,-11.137 -1.375,-11.508 -1.559,-13.117c-7.45,-48.212 -35.041,-200.854 -39.041,-216.595c-0.042,-0.342 0.125,-0.946 0.521,-1.571c3.233,-6.425 25.408,-24.559 49.545,-42.909c31.65,-23.979 81.817,-13.854 82.105,-6.562Z" style="fill:#ec925d;fill-rule:nonzero;"/><path d="M1310.75,1228.9c-2.737,-17.654 -7.462,-47.408 -12.617,-79.292l0.388,-0.062c4.092,23.521 7.579,44.187 9.591,57.216c0.184,1.609 0.151,1.98 1.559,13.117c0.104,0.708 0.392,1.367 0.842,1.979c0.062,2.213 0.158,4.275 0.3,6.175c-0.021,0.288 -0.042,0.575 -0.063,0.867Z" style="fill:#e6ac82;fill-rule:nonzero;"/><path d="M1298.13,1149.6c-0.875,-5.408 -1.762,-10.875 -2.654,-16.354l0.184,-0.029c0.979,5.554 1.933,11.004 2.858,16.321l-0.388,0.062Z" style="fill:#3b6760;fill-rule:nonzero;"/><path d="M1295.48,1133.25c-0.746,-4.604 -1.5,-9.221 -2.25,-13.813c0.821,4.634 1.638,9.242 2.434,13.784l-0.184,0.029Z" style="fill:#ea9e6e;fill-rule:nonzero;"/><path d="M1311.08,1231.01c-0.108,-0.683 -0.217,-1.391 -0.329,-2.116c0.021,-0.292 0.042,-0.579 0.063,-0.867c0.075,1.046 0.162,2.042 0.266,2.983Z" style="fill:#2d3b3f;fill-rule:nonzero;"/><path d="M1183.5,801.367c-0.134,-0.05 -0.271,-0.1 -0.404,-0.155c-0,0 0.166,0.034 0.404,0.155Z" style="fill:#f7d3be;fill-rule:nonzero;"/><path d="M1305.05,956.554c-6.425,-7.75 -14.6,-15.733 -24.766,-23.95c-0.288,-0.337 -0.705,-0.783 -1.234,-1.091c-0.179,-0.138 -0.358,-0.271 -0.537,-0.405l15.841,-7.033c9.442,7.354 17.85,14.583 24.779,21.608c-4.82,3.663 -9.554,7.317 -14.083,10.871Zm-148.487,-108.204c-5.063,-3.221 -10.309,-6.546 -15.75,-9.987c-3.246,-2.055 -6.825,-4.325 -10.604,-6.717c34.129,-23.763 20.92,-35.354 20.92,-35.354c-4.379,-2.821 -7.645,-6.425 -10.058,-10.43c14.183,4.888 28.196,10.042 42.017,15.35c0.133,0.055 0.27,0.105 0.404,0.155c1.362,0.704 5.112,4.387 -5.467,22.266c-2.175,3.675 -0.633,9.775 2.496,15.934l-23.958,8.783Z" style="fill:#e57945;fill-rule:nonzero;"/><path d="M1310.51,1221.85c-0.45,-0.612 -0.738,-1.271 -0.842,-1.979c-1.408,-11.137 -1.375,-11.508 -1.559,-13.117c-2.012,-13.029 -5.499,-33.695 -9.591,-57.216c-0.925,-5.317 -1.879,-10.767 -2.858,-16.321c-0.796,-4.542 -1.613,-9.15 -2.434,-13.784c-1.954,-11.954 -3.9,-23.766 -5.758,-34.941c15.15,-19.975 26.704,-39.083 31.821,-55.667c9.316,-21.504 7.97,-45.5 -14.238,-72.275c4.529,-3.554 9.263,-7.208 14.083,-10.871c20.201,20.496 26.059,61.792 16.905,92.459c-14.242,47.725 -26.671,142.045 -25.529,183.712Z" style="fill:#e57945;fill-rule:nonzero;"/><path d="M1203.83,519.563c-1.22,7.133 -25.904,110.874 -36.133,153.775l-0,0.204c-2.554,10.904 -4.221,17.833 -4.221,18.137c-22.125,-2.854 -64.037,-13.654 -81.604,-35.562c-6.117,-7.646 -9.229,-16.713 -7.337,-27.209c3.216,-17.937 17.675,-59.412 22.233,-76.329c6.337,-23.641 14.562,-43.108 24.237,-57.883c10.784,-16.813 23.459,-27.517 37.467,-31.383c33.129,-9.071 41.579,9.37 47.804,25.983c3.225,8.866 -1.667,26.291 -2.446,30.267Z" style="fill:#f8c650;fill-rule:nonzero;"/><path d="M1266.89,786.646c-0,-0 16.696,17.492 25.441,20.671c4.584,1.662 11.346,0.929 19.259,0.196c7.196,-0.667 15.345,-1.334 23.675,-0.196c17.491,2.383 22.358,26.216 25.441,31.8c3.084,5.579 3.875,22.929 -13.962,23.787c-7.713,0.371 -15.85,-4.496 -22.638,-9.358c-8.912,-6.388 -15.5,-12.775 -15.762,-7.313c6.758,11.9 12.379,18.896 3.866,19.121c-8.516,0.221 -21.77,-24.637 -34.341,-28.512c-12.571,-3.875 -22.109,-8.417 -25.288,-16.188c-3.179,-7.775 14.309,-34.008 14.309,-34.008Z" style="fill:#fcc7a9;fill-rule:nonzero;"/><path d="M1238.08,825.175c0,0 -4.558,-2.646 -12.117,-6.929l-0.333,-0.204c-32.908,-18.646 -119.85,-68.275 -129.408,-73.78c-11.675,-6.724 -29.796,-30.266 -35.467,-38.62c1.333,-21.5 9.446,-38.625 21.125,-49.525c22.346,-20.688 57.808,-19.059 85.825,17.425c0.112,0.304 108.396,113.421 112.287,116.475c4.225,3.366 -25.92,42.25 -41.912,35.158Z" style="fill:#f8c650;fill-rule:nonzero;"/><path d="M1072.17,427.921l-10.342,-14.638c0,0 13.754,-11.487 30.717,-4.325l-20.375,18.963Z" style="fill:#f8c650;fill-rule:nonzero;"/><path d="M1065.77,410.713c1.029,-0.567 2.237,-1.163 3.6,-1.721c-1.388,0.591 -2.638,1.212 -3.6,1.721Z" style="fill:#f19a19;fill-rule:nonzero;"/><path d="M1231.83,328.971c-30.85,26.371 -34.863,70.825 -94.179,70.825c-59.317,-0 -48.883,14.687 -66.229,-22.004c-16.896,-35.755 -17.859,-54.95 -20.538,-89.875c-1.325,-17.259 18.196,-43.117 56.767,-53.988c44.546,-27.387 82.287,0.071 105.179,5.192c33.529,7.5 36.437,28.146 32.271,40.329c0.333,31.408 -2.8,33.554 -13.271,49.521Z" style="fill:#3b5765;fill-rule:nonzero;"/><path d="M1280.29,932.604c0.358,3.158 -14.684,38.871 -28.509,70.129c-0.783,1.813 -1.562,3.625 -2.462,5.454c-9.979,22.813 -18.775,41.921 -19.384,41.992c-19.162,-3.862 -38.083,-7.754 -56.683,-12.05c-6.179,-1.271 -12.237,-2.554 -18.446,-4.066c-73.35,-16.688 -143.15,-36.859 -212.379,-67.196c-57.808,-25.225 -79.983,-86.034 -73.517,-124.588c0.721,-4.516 1.467,-8.791 2.121,-12.808c10.588,-63.046 11.225,-61.763 93.979,-57.721c14.98,0.637 53.9,17.908 68.592,22.521c16.754,5.429 23.496,4.425 28.625,3.425c6.346,-1.233 10.229,-2.471 27.542,8.437c1.854,1.146 3.725,2.413 5.579,3.554c15.241,9.484 29.187,18.376 42.062,26.521c58.388,36.867 94.496,60.859 123.638,82.067c1.325,0.838 2.666,1.792 3.883,2.767c4.838,3.512 9.55,7.045 14.125,10.471c0.529,0.308 0.946,0.754 1.234,1.091Z" style="fill:#ec925d;fill-rule:nonzero;"/><path d="M1136.09,1371.9c-9.605,3.308 -57.917,-6.613 -77.134,-28.333c-1.679,-1.78 -5.171,-8.655 -9.554,-16.9l-0.029,-0.246c-7.537,-14.3 -17.542,-33 -24.625,-37.863c-11.346,-7.704 -20.967,-34.95 -17.079,-43.029c3.887,-8.079 62.641,-53.796 62.641,-53.796l39.371,44.071c0,0 -6.021,14.238 -3.166,39.413c1.133,9.975 3.687,21.633 8.654,34.991c21.183,30.367 54.837,50.084 20.921,61.692Z" style="fill:#3b5765;fill-rule:nonzero;"/><path d="M1049.38,1326.42c-2.042,-3.875 -4.267,-8.071 -6.563,-12.229c-6.183,-11.188 -12.899,-22.088 -18.062,-25.634c-9.596,-6.516 -17.954,-27.008 -17.954,-38.062c-0,-2.017 0.275,-3.717 0.875,-4.967c2.075,-4.304 19.737,-19.308 35.779,-32.379c2.863,14.117 22.012,33.633 40.158,43.892c6.638,3.754 13.146,6.271 18.667,6.829l0.242,-0.025c0.733,0.075 1.45,0.112 2.15,0.112c0.371,0 0.737,-0.012 1.1,-0.033c0.062,3.471 0.291,7.237 0.75,11.292c-1.971,0.604 -4.396,1.016 -7.33,1.016c-7.499,0 -18.324,-2.7 -33.437,-11.787c-11.575,-6.959 -19.637,-9.504 -25.217,-9.504c-12.204,-0 -12.516,12.166 -11.646,16.887c1.292,6.996 12.5,31.967 20.488,54.592Z" style="fill:#2e4754;fill-rule:nonzero;"/><path d="M1319.29,1028.83c-24.5,79.409 -196.675,216.717 -203.742,229.346c-2.558,4.604 -7.3,6.254 -13.033,5.671l-0.242,0.025c-24.675,-2.496 -68.937,-44.042 -57.271,-60.646c0,0 28.421,-44.862 65.142,-101.267l0.308,-0.525c6.4,-9.841 13.013,-19.958 19.858,-30.22c7.975,-12.238 16.163,-24.75 24.492,-37.15c0.846,-1.205 1.684,-2.53 2.638,-3.871c7.775,-11.846 15.666,-23.709 23.483,-35.192c2.183,-7.883 44.283,-88.55 46.371,-97.287c12.617,6.945 23.862,13.8 33.75,20.562c1.325,0.838 2.666,1.792 3.883,2.767c4.838,3.512 9.55,7.045 14.125,10.471c0.529,0.308 0.946,0.754 1.234,1.091c45.299,36.621 51.012,68.5 39.004,96.225Z" style="fill:#ec925d;fill-rule:nonzero;"/><path d="M1102.28,1263.87c-5.521,-0.558 -12.029,-3.075 -18.667,-6.829c6.638,3.754 13.146,6.271 18.667,6.829Z" style="fill:#2d3a3d;fill-rule:nonzero;"/><path d="M1152.57,1037.39c1.325,-2.013 2.104,-3.18 2.233,-3.329c-0.746,1.108 -1.491,2.22 -2.233,3.329Z" style="fill:#e38652;fill-rule:nonzero;"/><path d="M1133.41,1029.07c-65.588,-15.729 -128.517,-34.825 -190.988,-62.2c-40.779,-17.796 -63.829,-53.3 -71.6,-86.209c7.771,32.909 30.821,68.413 71.6,86.209c62.471,27.375 125.4,46.471 190.988,62.2Z" style="fill:#3d757a;fill-rule:nonzero;"/><path d="M1154.8,1034.06c-3.7,-0.842 -7.387,-1.692 -11.066,-2.55c3.679,0.858 7.366,1.708 11.066,2.55Z" style="fill:#e38652;fill-rule:nonzero;"/><path d="M1143.74,1031.51c-3.45,-0.809 -6.892,-1.621 -10.325,-2.446c3.433,0.825 6.875,1.637 10.325,2.446Z" style="fill:#3b655d;fill-rule:nonzero;"/><path d="M1140.82,838.363c-1.125,-0.713 -2.267,-1.434 -3.409,-2.155c-2.362,-1.496 -4.762,-3.016 -7.2,-4.558l0.005,-0.004c3.779,2.392 7.358,4.662 10.604,6.717Z" style="fill:#de6332;fill-rule:nonzero;"/><path d="M1154.8,1034.06c-3.7,-0.842 -7.387,-1.692 -11.066,-2.55c-3.45,-0.809 -6.892,-1.621 -10.325,-2.446c-65.588,-15.729 -128.517,-34.825 -190.988,-62.2c-40.779,-17.796 -63.829,-53.3 -71.6,-86.209c-1.192,-5.058 -2.025,-10.058 -2.508,-14.925c9.612,3.609 21.041,6.892 31.895,9.684c0.092,0.025 0.184,0.045 0.28,0.071c22.416,5.7 45.487,8.504 68.608,8.504l0.025,-0c6.825,-0 13.654,-0.242 20.471,-0.729c0.558,-0 1.004,-0.105 1.558,-0.105c34.242,-2.545 76.267,-8.658 81.492,-23.233c-0.109,-2.646 -0.554,-6.929 0.996,-14.675c0.337,-1.425 0.666,-3.054 1.112,-4.788c0.513,-0.22 1.188,-0.316 1.992,-0.316c5.204,-0 15.879,4.141 22.137,7.146c0.892,0.408 1.779,0.812 2.446,1.221c12.171,-6.18 21.6,-11.796 28.879,-16.863c2.438,1.542 4.838,3.062 7.2,4.558c1.142,0.721 2.284,1.442 3.409,2.155c0.525,0.333 1.041,0.658 1.55,0.979c0.925,6.929 -10.709,16.312 -47.479,31.625l-22.671,8.312c-0.642,0.233 -1.088,0.667 -1.35,1.175c-14.525,5.492 -31.696,11.613 -51.884,18.471c-58.816,19.979 77.338,83.625 153.521,108.546c-5.033,7.508 -10.071,15.117 -15.062,22.721c-0.954,1.341 -1.792,2.666 -2.638,3.871Z" style="fill:#e47744;fill-rule:nonzero;"/><path d="M1102.28,1263.87c-5.521,-0.558 -12.029,-3.075 -18.667,-6.829c-23.02,-13.017 -47.658,-40.934 -38.604,-53.817c0,0 91.933,-142.092 107.567,-165.833c0.742,-1.109 1.487,-2.221 2.233,-3.329c0.846,-1.205 1.684,-2.53 2.638,-3.871c4.991,-7.604 10.029,-15.213 15.062,-22.721c19.304,6.312 34.763,10.142 42.217,10.142c1.129,-0 2.071,-0.088 2.821,-0.267c-48.7,18.971 -24.884,61.958 -54.905,88.629c0,0 -29.633,40.083 -88.583,97.704c-15.637,15.283 16.092,52.083 28.221,60.192Z" style="fill:#e47744;fill-rule:nonzero;"/><path d="M1167.85,673.704c-0.092,-0.104 -0.142,-0.158 -0.146,-0.162l-0,-0.204c-0,0.008 0.05,0.133 0.146,0.366Z" style="fill:#fbe2a6;fill-rule:nonzero;"/><path d="M1167.7,673.542c-1.85,-2.409 -3.733,-4.671 -5.642,-6.779c2.646,-7.267 5.363,-14.826 8.08,-22.584c-0.688,14.171 -1.496,24.921 -2.438,29.159l-0,0.204Z" style="fill:#f4b034;fill-rule:nonzero;"/><path d="M1225.62,818.042c-20.042,-11.354 -60.125,-34.204 -90.567,-51.58c-1.308,-12.47 1.179,-23.412 1.179,-23.525c0.963,-10.616 12.542,-39.749 25.821,-76.174c1.909,2.108 3.792,4.37 5.642,6.779c0.004,0.004 0.054,0.058 0.146,0.162c1,2.484 6.958,17.304 9.071,33.409c2.029,15.429 14.687,89.529 48.708,110.929Z" style="fill:#f4b034;fill-rule:nonzero;"/><path d="M1203.5,493.879c-0,1.325 -0,2.65 -0.108,3.875l-0,0.917c0.108,83.562 -64.817,218.483 -67.155,244.266c0,0.205 -8.675,38.171 14.896,53.355c0,-0 19.438,17.066 -49.804,52.221c-0.667,-0.409 -1.554,-0.813 -2.446,-1.221c-5.67,-2.954 -10.675,-5.913 -14.116,-9.684c-3.892,-4.179 -5.559,-9.171 -3.338,-16c-3.333,7.646 -5.337,13.859 -6.675,18.854c-0.446,1.734 -0.775,3.363 -1.112,4.788c-1.55,7.746 -1.105,12.029 -0.996,14.675c-5.225,14.575 -47.25,20.688 -81.492,23.233c-0.554,0 -1,0.105 -1.558,0.105c-30.017,2.141 -60.254,-0.409 -89.384,-7.846c-26.57,-6.83 -56.587,-16.613 -54.92,-26.904c9.895,-58.088 38.579,-105.471 48.696,-227.863c0.666,-9.171 42.579,-116.883 72.041,-151.633c3.225,-3.771 6.338,-6.625 9.009,-8.459c1.887,-1.221 3.333,-2.241 4.554,-3.158c8.895,-6.012 12.675,-9.375 25.795,-16.204c3.001,-1.629 6.446,-3.363 10.559,-5.4c75.154,-36.583 147.862,-29.042 183.441,41.783c1.559,3.363 0.888,1.525 2.892,8.254c0.667,2.746 1.113,5.296 1.221,8.046Z" style="fill:#f8c650;fill-rule:nonzero;"/><path d="M1181.44,427.596l-29.463,27.058c-0.121,4.288 -0.354,9.154 -0.646,14.321c-1.291,22.071 -4.462,48.658 -12.854,50.771c-1.937,-25.121 -7.221,-42.613 -15.554,-55.938c-5.108,-8.333 -11.504,-15.083 -18.9,-21.071c-10.8,-8.862 -23.887,-16.137 -39.033,-24.708c0.825,-1.583 37.333,-51.004 37.333,-51.004c10.504,-14.437 86.629,46.546 79.117,60.571Z" style="fill:#fcc7a9;fill-rule:nonzero;"/><path d="M1138.26,519.746c0.071,-0.034 0.142,-0.067 0.213,-0.104c-0,0.025 0.004,0.05 0.004,0.075c-0.071,0.012 -0.146,0.02 -0.217,0.029Zm0.567,-0.1c1.921,-0.65 3.558,-2.604 4.963,-5.5c-1.4,2.996 -3.042,5 -4.963,5.5Zm12.1,-44.467c0.154,-2.092 0.287,-4.167 0.408,-6.204c0.121,-2.113 0.23,-4.175 0.325,-6.171c-0.112,2.738 -0.333,7.163 -0.733,12.375Zm-23.971,-4.104c-0.65,-0.35 -1.296,-0.721 -1.933,-1.108c0.033,-0.996 0.116,-1.78 0.179,-2.271c0.604,1.1 1.188,2.225 1.754,3.379Zm-2.242,-4.254c-1.116,-0.596 -2.954,-1.559 -5.287,-2.838c-4.475,-5.637 -9.729,-10.454 -15.621,-14.825c-3.725,-0.454 -7.087,-1.012 -10.108,-1.654c-9.675,-7.437 -18.463,-16.266 -21.275,-25.266c12.033,6.841 22.612,13.12 31.604,20.499c7.396,5.988 13.792,12.738 18.9,21.071c0.612,0.984 1.208,1.988 1.787,3.013Z" style="fill:#f7b546;fill-rule:nonzero;"/><path d="M1173.28,441.971c-1.254,-1.163 -2.521,-2.288 -3.813,-3.375l5.546,-5.092l6.213,1.775l-7.946,6.692Z" style="fill:#fee9de;fill-rule:nonzero;"/><path d="M1151.78,460.058c0.084,-1.879 0.15,-3.687 0.196,-5.404l17.483,-16.058c1.292,1.087 2.559,2.212 3.813,3.375l-21.492,18.087Z" style="fill:#f7b546;fill-rule:nonzero;"/><path d="M1138.48,519.717c0,-0.025 -0.004,-0.05 -0.004,-0.075c4.808,-2.613 7.946,-18.55 9.229,-27.93c1.358,-9.958 0.817,-17.683 -13.433,-17.695c-2.521,-0.671 -4.946,-1.671 -7.313,-2.942c-0.566,-1.154 -1.15,-2.279 -1.754,-3.379c0.017,-0.1 0.029,-0.188 0.038,-0.263l-0.038,-0.066l-0.025,-0.229c-0.029,-0.042 -0.088,-0.08 -0.171,-0.109l-0.042,-0.071c0.009,0.005 0.021,0.009 0.03,0.009c-0.013,-0.004 -0.025,-0.013 -0.034,-0.017l-0.004,-0.004c-0.004,-0.004 -0.008,-0.004 -0.017,-0.004c-0.07,-0.042 -0.145,-0.08 -0.225,-0.121c-0.579,-1.025 -1.175,-2.029 -1.787,-3.013c-5.108,-8.333 -11.504,-15.083 -18.9,-21.071c-8.992,-7.379 -19.571,-13.658 -31.604,-20.499c-0.404,-1.305 -0.683,-2.609 -0.825,-3.917c2.025,-3.913 4.742,-7.275 6.662,-9.396c1.767,-1.208 2.867,-1.617 1.78,-1.867c0.354,-0.346 0.554,-0.533 0.554,-0.533l94.416,26.979l-5.546,5.092l-17.483,16.058c-0.046,1.717 -0.112,3.525 -0.196,5.404l-0.025,0.025c-0.012,0.404 -0.041,1.35 -0.1,2.721c-0.096,1.996 -0.204,4.058 -0.325,6.171c-0.121,2.037 -0.254,4.112 -0.408,6.204c-0.975,12.733 -3.013,30.146 -7.137,38.967c-1.405,2.896 -3.042,4.85 -4.963,5.5c-0.117,0.029 -0.233,0.054 -0.35,0.071Z" style="fill:#fbb693;fill-rule:nonzero;"/><path d="M1125.24,467.433c-0.213,1.434 -0.9,7.625 1.787,13.867c-0,-0 -25.871,-0.496 -32.5,-9.446c-6.479,-8.75 26.563,-6.3 30.429,-4.908l0.284,0.487Z" style="fill:#f8c650;fill-rule:nonzero;"/><path d="M975.038,460.558c1.887,-1.221 8.587,-6.42 9.862,-7.6c-0.004,0.004 -0.008,0.004 -0.012,0.004c-0.263,0 3.891,-2.504 10.32,-6.087c-5.875,3.567 -9.558,6.429 -15.616,10.525c-1.221,0.917 -2.667,1.937 -4.554,3.158Zm47.024,-27.641c10.501,-5.021 20.867,-9.346 27.534,-10.592c-0.013,0.008 -0.025,0.021 -0.038,0.029c-9.066,2.817 -18.262,6.35 -27.496,10.563Z" style="fill:#fbe2a6;fill-rule:nonzero;"/><path d="M969.121,883.992l-0.021,-0l0.021,-0Zm0.004,-0c6.825,-0 13.654,-0.242 20.471,-0.729c-6.817,0.487 -13.646,0.729 -20.471,0.729Zm-68.633,-8.504c-0.096,-0.026 -0.188,-0.046 -0.28,-0.071c-10.854,-2.792 -22.283,-6.075 -31.895,-9.684c9.612,3.609 21.041,6.892 31.895,9.684c0.092,0.025 0.184,0.045 0.28,0.071Zm200.837,-26.975c-0.667,-0.409 -1.554,-0.813 -2.446,-1.221c-6.258,-3.005 -16.933,-7.146 -22.137,-7.146c-0.804,-0 -1.479,0.096 -1.992,0.316c1.338,-4.995 3.342,-11.208 6.675,-18.854c-2.221,6.829 -0.554,11.821 3.338,16c3.441,3.771 8.446,6.73 14.116,9.684c0.892,0.408 1.779,0.812 2.446,1.221Z" style="fill:#e1692c;fill-rule:nonzero;"/><path d="M969.125,883.992l-0.025,-0c-23.121,-0 -46.196,-2.804 -68.608,-8.504c-0.096,-0.026 -0.188,-0.046 -0.28,-0.071c-10.854,-2.792 -22.283,-6.075 -31.895,-9.684c-13.292,-4.991 -23.105,-10.608 -23.092,-16.408c0.004,-0.271 0.025,-0.542 0.067,-0.812c9.895,-58.088 38.579,-105.471 48.696,-227.863c0.666,-9.171 42.579,-116.883 72.041,-151.633c3.225,-3.771 6.338,-6.625 9.009,-8.459c1.887,-1.221 3.333,-2.241 4.554,-3.158c6.058,-4.096 9.741,-6.958 15.616,-10.525c7.125,-3.971 17.046,-9.271 26.854,-13.958c9.234,-4.213 18.43,-7.746 27.496,-10.563c-2.6,2.029 -5.5,4.6 -7.529,7.508c-9.854,0.438 -27.821,14.009 -21.312,21.142c8.741,11.329 13.591,34.129 9.129,79.871c-4.338,44.429 13.237,95.179 -6.338,139.713c-12.658,28.795 28.079,64.787 60.73,91.941c-2.213,19.617 -3.088,39.371 -2.946,59.079l0.137,0c-3.333,7.646 -5.337,13.859 -6.675,18.854l-0.446,0.205c-46.454,-1.8 -144.25,-51.1 -166.712,-51.1c-1.671,-0 -2.929,0.275 -3.713,0.858c-89.462,66.833 51.584,86.008 85.713,92.838c-6.817,0.487 -13.646,0.729 -20.471,0.729Zm132.204,-35.479c-0.667,-0.409 -1.554,-0.813 -2.446,-1.221c-5.67,-2.954 -10.675,-5.913 -14.116,-9.684c-3.892,-4.179 -5.559,-9.171 -3.338,-16l0.134,0.004c0.945,-19.137 2.595,-38.216 4.966,-57.187c18.929,15.692 34.575,28.208 34.492,34.3c-0.108,9.375 5.546,31.954 -19.692,49.788Zm-37.554,-340.601c-0,0 -8.496,-45.366 -24.363,-57.312c-3.454,-2.842 -8.22,-13.146 1.209,-18.367c-2.263,4.663 -1.817,9.971 5.429,15.209c18.313,13.287 17.725,60.47 17.725,60.47Zm-0,0c-0,0 8.1,-6.887 18.433,-15.066c6.517,-5.134 13.95,-10.775 20.838,-15.496c4.112,1.508 8.879,2.446 13.075,3.025c-17.642,6.054 -52.346,27.537 -52.346,27.537Z" style="fill:#f4b034;fill-rule:nonzero;"/><path d="M1116.12,480.375c-4.196,-0.579 -8.963,-1.517 -13.075,-3.025c1.566,-1.075 3.104,-2.104 4.596,-3.067c2.537,0.292 5.066,0.721 7.521,1.359c3.116,1.65 5.866,2.762 8.095,3.158l-0.062,-0c-1.746,-0 -4.184,0.579 -7.075,1.575Z" style="fill:#f4b034;fill-rule:nonzero;"/><path d="M1125.2,467.367l-0.196,-0.338c0.083,0.029 0.142,0.067 0.171,0.109l0.025,0.229Z" style="fill:#f48d2e;fill-rule:nonzero;"/><path d="M1127.03,481.3c-3.454,-2.779 -7.542,-4.542 -11.862,-5.658c-1.588,-0.842 -3.276,-1.825 -5.034,-2.925c5.096,-3.109 9.5,-5.292 12.438,-5.813c0.312,-0.008 0.604,-0.012 0.862,-0.012c0.771,-0 1.309,0.041 1.575,0.137l0.196,0.338l0.008,0.07c-0.154,1.121 -0.962,8.063 1.817,13.863Z" style="fill:#f19a19;fill-rule:nonzero;"/><path d="M1115.16,475.642c-2.455,-0.638 -4.984,-1.067 -7.521,-1.359c0.75,-0.479 1.487,-0.945 2.208,-1.395c0.096,-0.059 0.187,-0.113 0.279,-0.171c1.758,1.1 3.446,2.083 5.034,2.925Z" style="fill:#ed8910;fill-rule:nonzero;"/><path d="M1124.99,466.967c-2.525,-0.913 -8.217,1.67 -15.142,5.921c-8.512,5.275 -18.9,13.075 -27.642,19.958c-10.333,8.179 -18.433,15.066 -18.433,15.066c-0,0 0.588,-47.183 -17.725,-60.47c-18.079,-13.075 6.163,-26.58 9.275,-29.375c3.517,-3.067 6.279,-5.059 8.45,-6.184l-0,-0.058c-0,0 8.979,-5.488 14.908,-4.95c5.871,0.537 -4.341,0.971 -7.108,11.296c2.237,22.492 46.375,45.033 53.417,48.796Z" style="fill:#f8c650;fill-rule:nonzero;"/><path d="M1173.76,505.825c-7.433,-4.775 -15.754,-27.492 -21.237,-27.492c-0.417,0 -0.813,0.129 -1.196,0.409c0.754,-2.821 3.438,-10.788 10.275,-14.034c2.45,-1.162 2.625,-1.57 1.642,-1.57c-0.334,-0 -0.805,0.045 -1.363,0.129c3.35,-2.484 7.242,-4.088 11.379,-4.088c2.584,0 5.263,0.625 7.975,2.046c-0.825,6.704 -4.362,30.021 -7.475,44.6Zm-22.646,-26.913c0.005,-0.016 0.009,-0.033 0.013,-0.045l-0.004,0.037c-0.004,0.004 -0.004,0.004 -0.009,0.008Z" style="fill:#f4ae32;fill-rule:nonzero;"/><path d="M1151.08,479.746l0.038,-0.842c0.067,-0.058 0.137,-0.112 0.204,-0.162c-0.171,0.633 -0.242,1.004 -0.242,1.004Zm0.042,-0.879l0.592,-12.796l0.545,-0.667c1.65,-0.425 6.788,-1.725 9.617,-2.137c-5.325,3.946 -9.287,10.112 -10.754,15.6Z" style="fill:#f19a19;fill-rule:nonzero;"/><path d="M1151.12,478.904l0.004,-0.037c1.467,-5.488 5.429,-11.654 10.754,-15.6c0.558,-0.084 1.029,-0.129 1.363,-0.129c0.983,-0 0.808,0.408 -1.642,1.57c-6.837,3.246 -9.521,11.213 -10.275,14.034c-0.067,0.05 -0.137,0.104 -0.204,0.162Z" style="fill:#ed8710;fill-rule:nonzero;"/><path d="M1151.98,465.546c-0,-0 4.662,-2.279 10.692,15.754c6.033,18.038 10.858,22.092 10.858,22.092c-0,-0 1.208,-31.996 5.229,-36.271c4.021,-4.275 -4.021,-19.758 -4.021,-19.758l-22.758,18.183Z" style="fill:#f8c650;fill-rule:nonzero;"/><path d="M1225.98,344.958c-2.1,4.634 -2.979,9.684 -2.625,14.754c1.204,17.117 -5.529,33.776 -16.737,53c-30.538,52.392 -32.854,45.334 -59.917,39.171c-16.696,-3.796 -31.908,-12.521 -43.617,-25.012c-16.225,-17.308 -30.525,-41.563 -42.508,-76.6c-4.483,-13.1 -3.671,-27.583 2.638,-39.913c31.07,-60.729 89.487,-35.816 141.57,-24.296c39.234,8.68 29.842,39.855 21.196,58.896Z" style="fill:#fcc7a9;fill-rule:nonzero;"/><path d="M1231.83,328.971c0,-0 -42.162,-19.667 -34.5,-36.854c2.508,-5.621 -9.104,-8.575 -15.258,-8.829c-36.446,-1.505 -62.2,14.883 -69.709,36.487c-1.525,4.404 -2.287,9.042 -2.229,13.796c0.529,34.979 -22.129,18.075 -27.704,31.283c-3.054,7.158 -8.1,8.746 -9.037,17.138c-12.317,-18.734 -18.467,-56.2 -23.521,-82.23c0.521,-25.787 11.254,-44.883 42.004,-59.575c51.421,-24.591 95.5,-4.695 118.212,18.43l0.063,0.116c51.675,12.384 62.283,46.709 21.679,70.238Z" style="fill:#3b5765;fill-rule:nonzero;"/><path d="M1082.44,364.829c-3.05,7.204 -0.68,22.988 -1.63,31.396c-23.516,-35.787 -53.416,-125.204 11.063,-156.054l-9.433,124.658Z" style="fill:#3b5765;fill-rule:nonzero;"/><path d="M1094.89,358.95c-6.325,11.475 2.996,26.738 -4.671,29.629c-7.658,2.892 -17.996,-5.687 -23.079,-19.162c-5.079,-13.475 -9.2,-24.396 4.666,-29.629c17.709,-6.68 30.034,6.55 23.084,19.162Z" style="fill:#fcc7a9;fill-rule:nonzero;"/><path d="M974.892,682.567l38.479,-109.338c39.383,-80.383 14.987,-114.937 10.85,-119.583c-5.196,-5.829 -19.75,-7.209 -26.359,-5.571c-30.858,7.663 -67.854,46.863 -105.004,150.533c-0.583,1.634 -28.554,88.138 -29.316,90.829c-0.313,1.246 74.558,-13.225 111.35,-6.87Z" style="fill:#f8c650;fill-rule:nonzero;"/><path d="M1086.53,764.425c-0.754,-0.625 -1.516,-1.258 -2.291,-1.896c0.641,-5.6 1.383,-11.187 2.241,-16.758c3.921,-25.004 9.284,-50.209 20.363,-73.208c12.4,-22.196 19.154,-46.871 23.304,-71.75c4.15,-24.909 6.916,-50.059 7.979,-75.359l0.267,-0.004c0.733,50.512 -7.438,102.213 -30.229,147.725c-9.992,23.15 -15.271,48.083 -19.117,72.983c-0.913,6.075 -1.754,12.167 -2.517,18.267Z" style="fill:#f3a82a;fill-rule:nonzero;"/><path d="M1081.56,821.612l-0.134,-0.004l-0.137,0c-0.142,-19.708 0.733,-39.462 2.946,-59.079c0.775,0.638 1.537,1.271 2.291,1.896c-2.371,18.971 -4.021,38.05 -4.966,57.187Z" style="fill:#ef951b;fill-rule:nonzero;"/><path d="M1082.21,492.846c-0.125,-0.484 -0.062,-1.075 0,-1.721c1.742,-15.9 -20.504,-50.163 -12.75,-50.163c0.563,0 1.284,0.18 2.184,0.559c8.062,15.854 29.991,25.716 38.208,31.367c-0.721,0.45 -1.458,0.916 -2.208,1.395c-1.492,0.963 -3.03,1.992 -4.596,3.067c-6.888,4.721 -14.321,10.362 -20.838,15.496Z" style="fill:#f7c048;fill-rule:nonzero;"/><path d="M1242.51,823.1c-2.58,-0.792 -5.346,-0.721 -7.88,0.208l-160.779,58.954c-0.966,-0.816 -2.733,-2.212 -3.033,-1.72c-0.467,0.762 -1.046,3.841 -0.917,4.883l0,0.025l0.004,0.175l0.042,-0.004c0.063,0.904 0.55,1.783 1.571,2.158l161.95,60.104c1.633,0.609 3.437,0.559 5.037,-0.133l167.121,-74.371l-163.116,-50.279Z" style="fill:#3b5765;fill-rule:nonzero;"/><path d="M1239.2,943.917l169.921,-73.509l-165.921,-51.141c-2.579,-0.796 -5.346,-0.721 -7.879,0.208l-163.104,59.804c-2.167,0.796 -2.175,3.863 -0.013,4.667l161.954,60.104c1.638,0.608 3.442,0.558 5.042,-0.133Z" style="fill:#abe3ef;fill-rule:nonzero;"/><path d="M1478.07,696.379c-4.263,-4.829 -5.454,-4.342 -7.642,-3.633l-170.742,56.516c-3.741,1.238 -6.666,4.192 -7.866,7.946l-58.721,183.504c-0.9,2.821 1.958,5.388 4.666,4.184l171.667,-76.208c3.083,-1.371 5.475,-3.942 6.608,-7.121l58.28,-163.225c1.137,-0.25 2.37,-0.767 3.75,-1.963Z" style="fill:#3b5765;fill-rule:nonzero;"/><path d="M1233.65,943.862l-161.45,-59.916c-1.079,-0.4 -1.621,-1.371 -1.616,-2.338c-0,-0.966 0.541,-1.929 1.629,-2.329l163.104,-59.804c1.371,-0.504 2.808,-0.754 4.246,-0.754c1.225,-0 2.45,0.179 3.633,0.546l26.175,8.066l-8.162,25.513l-121.451,44.533c-1.966,0.721 -1.97,3.496 -0.012,4.225l94.863,34.367l-1.517,4.741c-0.375,1.18 -0.096,2.317 0.558,3.15Zm-27.166,-100.895c-0.805,0.008 -1.538,0.016 -2.346,0.025l-46.463,17.033c0,0.658 0,0.671 0.004,1.329l31.521,11.421c0.538,0 1.029,0.004 1.563,0.008l48.104,-16.85c0.871,-0.308 0.866,-1.537 -0.004,-1.837l-32.379,-11.129Z" style="fill:#73cae0;fill-rule:nonzero;"/><path d="M1236.51,944.471c-0.796,-0 -1.592,-0.138 -2.355,-0.421l-0.504,-0.188c-0.654,-0.833 -0.933,-1.97 -0.558,-3.15l1.517,-4.741l4.245,1.537l-1.841,5.767c-0.117,0.363 -0.171,0.725 -0.171,1.071l-0,0.117c-0.109,0.008 -0.221,0.008 -0.333,0.008Zm24.7,-91.625l8.162,-25.513l4.312,1.329l-7.108,22.217l-5.366,1.967Z" style="fill:#284d5f;fill-rule:nonzero;"/><path d="M1234.61,935.971l-94.863,-34.367c-1.958,-0.729 -1.954,-3.504 0.012,-4.225l121.451,-44.533l-26.6,83.125Z" style="fill:#4db4d2;fill-rule:nonzero;"/><path d="M1238.86,937.508l-4.245,-1.537l26.6,-83.125l5.366,-1.967l-24.4,76.25l-3.321,10.379Z" style="fill:#1b4559;fill-rule:nonzero;"/><path d="M1190.77,872.783c-0.534,-0.004 -1.025,-0.008 -1.563,-0.008l-31.521,-11.421c-0.004,-0.658 -0.004,-0.671 -0.004,-1.329l46.463,-17.033c0.808,-0.009 1.541,-0.017 2.346,-0.025l32.379,11.129c0.87,0.3 0.875,1.529 0.004,1.837l-48.104,16.85Z" style="fill:#4db4d2;fill-rule:nonzero;"/><path d="M1241.68,947.458l171.667,-76.204c3.083,-1.371 5.471,-3.946 6.608,-7.125l58.7,-164.404c0.963,-2.692 -1.596,-5.317 -4.312,-4.417l-170.742,56.517c-3.742,1.237 -6.667,4.192 -7.867,7.946l-58.716,183.504c-0.905,2.821 1.954,5.388 4.662,4.183Z" style="fill:#abe3ef;fill-rule:nonzero;"/><path d="M1356.45,836.529c-0.892,0 -1.796,-0.029 -2.708,-0.079c-12.726,-0.733 -22.746,-6.421 -22.384,-12.704c0.325,-5.692 9.092,-9.875 20.192,-10.071c1.396,-2.733 3.204,-5.529 5.483,-8.221c6.192,-7.337 13.713,-11.754 19.104,-11.754c1.767,0 3.305,0.471 4.488,1.475c4.808,4.062 2.037,15.246 -6.188,24.983l-0.116,0.121c2.054,1.854 3.241,3.946 3.116,6.125c-0.337,5.829 -9.5,10.125 -20.987,10.125Z" style="fill:#c9f1f7;fill-rule:nonzero;"/><path d="M1372.48,889.396l40.867,-18.142c2.121,-0.941 3.912,-2.454 5.192,-4.337c-1.28,1.883 -3.071,3.396 -5.192,4.337l-40.867,18.142Z" style="fill:#d9f2f8;fill-rule:nonzero;"/><path d="M1294.36,924.075l78.121,-34.679l-78.121,34.679Z" style="fill:#c98b5a;fill-rule:nonzero;"/><path d="M1278.52,931.108l15.841,-7.033l-15.841,7.033Z" style="fill:#c37343;fill-rule:nonzero;"/><path d="M1240.28,947.762c-0.437,0 -0.858,-0.083 -1.25,-0.241c0.392,0.158 0.813,0.241 1.25,0.241c0.458,0 0.933,-0.095 1.404,-0.304l36.838,-16.35l-36.838,16.35c-0.471,0.209 -0.946,0.304 -1.404,0.304Z" style="fill:#c98b5a;fill-rule:nonzero;"/><path d="M1236.85,944.463l-0,-0.117l-0,0.117Zm0.171,-1.188l1.841,-5.767l-1.841,5.767Z" style="fill:#22495c;fill-rule:nonzero;"/><path d="M1238.86,937.508l3.321,-10.379l-3.321,10.379Z" style="fill:#174156;fill-rule:nonzero;"/><path d="M1470.75,696.5l3.596,-1.192l-3.596,1.192Z" style="fill:#325262;fill-rule:nonzero;"/><path d="M1240.28,947.762c-0.437,0 -0.858,-0.083 -1.25,-0.241c-1.221,-0.492 -2.129,-1.671 -2.179,-3.058l-0,-0.117c-0,-0.346 0.054,-0.708 0.171,-1.071l1.841,-5.767l3.321,-10.379l87.563,-42.233c38.75,-18.688 70.475,-49.271 90.591,-87.3c24.509,-46.338 50.292,-100.463 50.292,-100.463l0.121,-0.633l3.596,-1.192c0.37,-0.125 0.741,-0.179 1.1,-0.179c1.862,0 3.412,1.558 3.421,3.413c-0,0.387 -0.063,0.783 -0.209,1.183l-58.704,164.404c-0.354,0.996 -0.829,1.929 -1.412,2.788c-1.28,1.883 -3.071,3.396 -5.192,4.337l-40.867,18.142l-78.121,34.679l-15.841,7.033l-36.838,16.35c-0.471,0.209 -0.946,0.304 -1.404,0.304Z" style="fill:#92d8e8;fill-rule:nonzero;"/><path d="M1058.24,773.5c-0,0 51.845,34.879 60.854,37.237c9.004,2.359 31.987,3.655 40.262,4.092c8.28,0.433 33.313,27.221 37.505,40.488c4.191,13.266 4.283,27.837 0.237,32.629c-4.05,4.792 -27.862,2.562 -45.642,-4.425c-17.783,-6.988 -24.908,-27.859 -31.12,-30.434c-6.209,-2.579 -91.746,-43.216 -91.746,-43.216l29.65,-36.371Z" style="fill:#fcc7a9;fill-rule:nonzero;"/><path d="M974.092,693.429l2.666,-15.871c-32.937,16.317 -85.562,-30.237 -112.166,9.788c0.05,0.091 -2.388,10.366 -0,20.683c2.891,12.471 9.779,25.704 19.233,35.054c6.679,6.609 18.429,12.363 22.746,14.492c37.337,31.121 99.696,61.025 181.683,89.975c13.992,5.813 36.829,-43.812 32.767,-48.825l-146.929,-105.296Z" style="fill:#f8c650;fill-rule:nonzero;"/><path d="M1159.21,816.917c5.342,1.133 11.101,2.083 16.546,2.687c2.717,0.275 5.45,0.5 7.929,0.496c2.255,0.171 5.217,-0.679 4.413,-0.113c3.342,-2.516 8.092,-1.85 10.613,1.492c2.512,3.342 1.85,8.092 -1.492,10.609c-5.871,3.741 -9.067,3.337 -12.629,3.974c-3.421,0.33 -6.6,0.355 -9.78,0.342c-6.35,-0.108 -12.341,-0.521 -18.666,-1.242c-5.083,-0.579 -8.734,-5.17 -8.154,-10.254c0.583,-5.087 5.175,-8.737 10.258,-8.154l0.962,0.163Z" style="fill:#fcc7a9;fill-rule:nonzero;"/></g></svg>