<?xml version="1.0" encoding="UTF-8" standalone="no"?><!DOCTYPE svg PUBLIC "-//W3C//DTD SVG 1.1//EN" "http://www.w3.org/Graphics/SVG/1.1/DTD/svg11.dtd"><svg width="100%" height="100%" viewBox="0 0 283 71" version="1.1" xmlns="http://www.w3.org/2000/svg" xmlns:xlink="http://www.w3.org/1999/xlink" xml:space="preserve" xmlns:serif="http://www.serif.com/" style="fill-rule:evenodd;clip-rule:evenodd;stroke-linejoin:round;stroke-miterlimit:2;"><g><path d="M5.216,2.568c0.211,2.097 0.29,4.216 0.403,6.336c0.669,11.824 1.158,23.585 0.973,35.446c-0.052,3.09 -0.125,6.252 0.849,9.183c1.448,4.344 5.069,7.697 9.139,9.803c5.165,2.673 11.428,4.187 17.207,4.691c-2.607,-0.22 -1.692,-15.612 -1.738,-17.538c-0.272,-9.026 -0.458,-18.024 0,-27.027c0.188,-3.611 -0.055,-7.428 -1.99,-10.483c-1.266,-2.001 -3.187,-3.525 -5.215,-4.726c-2.925,-1.718 -6.158,-2.827 -9.434,-3.664c-3.1,-0.787 -7.034,-2.12 -10.194,-2.021Z" style="fill:url(#_Linear1);fill-rule:nonzero;"/><path d="M68.972,30.907l-27.468,-0.553c-0.459,-0.008 -0.902,0.166 -1.233,0.484c-0.331,0.318 -0.523,0.754 -0.534,1.212l-0.675,33.509c-0.004,0.271 0.056,0.54 0.174,0.784c0.118,0.244 0.292,0.457 0.507,0.622c0.215,0.165 0.466,0.277 0.733,0.328c0.267,0.05 0.541,0.037 0.802,-0.037c7.265,-2.129 29.547,-10.622 29.391,-34.641c-0.007,-0.449 -0.188,-0.877 -0.505,-1.196c-0.316,-0.318 -0.743,-0.502 -1.192,-0.512Z" style="fill:url(#_Linear2);fill-rule:nonzero;"/><path d="M47.564,26.693c-3.453,-17.764 14.977,-21.569 14.977,-21.569c-0,0 1.254,20.593 -14.977,21.569Z" style="fill:url(#_Linear3);fill-rule:nonzero;"/><path d="M62.564,5.124c-2.226,-1.665 -4.931,-2.565 -7.712,-2.563c-7.192,0 -13.021,5.905 -13.021,13.188c-0.006,2.155 0.515,4.279 1.519,6.187c1.003,1.907 2.458,3.541 4.237,4.757c-3.447,-17.743 14.933,-21.56 14.977,-21.569Z" style="fill:url(#_Linear4);fill-rule:nonzero;"/><path d="M62.567,5.124c-0,0.023 1.242,20.593 -14.98,21.572c2.141,1.462 4.673,2.243 7.265,2.241c7.191,0 13.022,-5.904 13.022,-13.188c0.004,-2.061 -0.473,-4.096 -1.395,-5.941c-0.921,-1.844 -2.261,-3.448 -3.912,-4.684Z" style="fill:url(#_Linear5);fill-rule:nonzero;"/><path d="M10.14,4.994c1.714,0.836 3.241,2.009 4.49,3.449c1.124,1.301 1.971,2.818 2.489,4.457c0.918,2.875 1.034,6.472 0.947,9.872c-0.223,8.476 -0.133,16.95 0,25.446c0.029,1.816 0.307,16.055 1.541,16.272c-2.749,-0.478 -6.439,-1.659 -8.896,-4.173c-1.938,-1.983 -3.664,-5.137 -4.345,-9.229c-0.464,-2.763 -0.429,-5.74 -0.403,-8.65c0.093,-11.167 -0.145,-22.244 -0.463,-33.375c-0.058,-1.996 -0.168,-4.095 -0.27,-6.082c1.489,-0.081 3.439,1.277 4.91,2.013Z" style="fill:url(#_Linear6);fill-rule:nonzero;"/></g><g><path d="M240.242,40.261c-1.684,-1.249 -3.726,-1.923 -5.823,-1.922c-2.115,0.012 -4.171,0.7 -5.866,1.965c-1.696,1.265 -2.941,3.039 -3.556,5.063c-0.614,2.024 -0.564,4.191 0.143,6.185c0.707,1.993 2.035,3.708 3.786,4.893c-2.61,-13.316 11.287,-16.177 11.316,-16.184Z" style="fill:url(#_Linear7);fill-rule:nonzero;"/><path d="M240.249,40.261c-0,-0 0.939,15.452 -11.323,16.184c1.621,1.099 3.535,1.686 5.493,1.685c2.078,-0.015 4.099,-0.684 5.776,-1.911c1.678,-1.226 2.927,-2.949 3.572,-4.925c0.644,-1.976 0.651,-4.104 0.02,-6.084c-0.631,-1.98 -1.869,-3.711 -3.538,-4.949Z" style="fill:url(#_Linear8);fill-rule:nonzero;"/><path d="M269.146,40.354c-1.686,-1.251 -3.73,-1.925 -5.83,-1.921c-2.115,0.011 -4.171,0.7 -5.866,1.964c-1.696,1.265 -2.942,3.039 -3.556,5.063c-0.614,2.024 -0.563,4.192 0.144,6.185c0.707,1.994 2.033,3.708 3.786,4.893c-2.589,-13.316 11.322,-16.148 11.322,-16.184Z" style="fill:url(#_Linear9);fill-rule:nonzero;"/><path d="M269.146,40.354c-0,0 0.939,15.445 -11.322,16.184c1.484,0.999 3.213,1.574 4.999,1.664c1.787,0.09 3.564,-0.31 5.141,-1.155c1.577,-0.845 2.894,-2.104 3.808,-3.642c0.915,-1.537 1.392,-3.295 1.382,-5.084c0.003,-1.549 -0.358,-3.077 -1.054,-4.461c-0.697,-1.384 -1.709,-2.585 -2.954,-3.506Z" style="fill:url(#_Linear10);fill-rule:nonzero;"/><path d="M110.62,21.983c-2.947,1.707 -3.722,8.211 -3.722,13.065l0,13.194c0,6.611 -5.887,9.917 -11.774,9.917c-5.887,-0 -11.824,-3.335 -11.824,-9.917l0,-21.046c0,-2.99 -0.975,-4.955 -1.957,-5.213l8.776,0c-0.982,0.258 -1.964,2.223 -1.964,5.213l-0,21.046c-0,5.528 4.388,8.26 8.776,8.26c4.389,0 8.935,-2.818 8.935,-8.26l-0,-13.194c-0,-5.371 -0.258,-11.358 -3.664,-13.065l8.418,0Z" style="fill:#130047;fill-rule:nonzero;"/><path d="M129.823,54.2l-5.938,-12.491l-4.302,3.822l-0,7.379c-0,2.997 0.982,4.962 1.958,5.22l-8.498,-0c0.976,-0.258 1.958,-2.223 1.958,-5.22l0,-32.526c0,-2.997 -0.982,-4.955 -1.958,-5.213l6.504,-2.947l0,32.583l8.469,-10.039c1.434,-1.857 1.857,-3.585 0.516,-4.388l8.103,-0l-9.136,8.052l7.536,15.776c0.368,0.92 0.933,1.749 1.655,2.428c0.722,0.678 1.584,1.191 2.526,1.501l-9.085,0c0.982,-0.265 0.982,-1.197 -0.308,-3.937Z" style="fill:#130047;fill-rule:nonzero;"/><path d="M164.055,50.12c-0.882,3.256 -5.529,8.161 -12.083,8.161c-17.711,-0 -16.678,-28.037 -0.623,-28.037c7.227,-0 11.257,5.32 11.257,12.649l-20.034,-0c0.717,6.403 5.019,13.172 12.699,13.172c3.721,-0 7.543,-3.514 8.267,-6.145l0.517,0.2Zm-21.533,-8.052l15.481,-0c-0.208,-6.554 -3.256,-10.483 -8.361,-10.483c-5.105,-0 -7.414,5.012 -7.12,10.483Z" style="fill:#130047;fill-rule:nonzero;"/><path d="M189.094,35.464c0.017,0.208 -0.011,0.418 -0.083,0.615c-0.072,0.196 -0.186,0.374 -0.334,0.522c-0.149,0.147 -0.327,0.261 -0.524,0.332c-0.197,0.071 -0.406,0.098 -0.615,0.08c-3.098,-0 -5.471,-3.98 -7.687,-6.253c-3.929,-0 -6.353,3.585 -6.353,7.594l0,14.556c0,2.997 0.983,4.962 1.965,5.22l-8.468,-0c0.975,-0.258 1.957,-2.223 1.957,-5.22l0,-14.556c0,-2.998 -0.982,-4.962 -1.957,-5.221l6.503,-2.868l0,2.151c1.569,-1.42 3.621,-2.19 5.737,-2.151c5.299,-0.021 9.859,2.56 9.859,5.199Z" style="fill:#130047;fill-rule:nonzero;"/><path d="M213.668,52.91l-0,-11.308c-0,-6.662 -4.188,-9.501 -8.318,-9.501c-1.423,-0.032 -2.83,0.303 -4.086,0.972c-1.256,0.669 -2.318,1.651 -3.085,2.85l0,16.987c0,2.997 0.983,4.962 1.965,5.22l-8.44,-0c0.983,-0.258 1.965,-2.223 1.965,-5.22l-0,-14.556c-0,-2.998 -0.982,-4.962 -1.965,-5.221l6.504,-2.868l-0,4.446c1.253,-1.376 2.778,-2.478 4.479,-3.234c1.701,-0.757 3.54,-1.152 5.402,-1.162c5.213,0 10.117,3.306 10.117,11.308l0,11.308c0,2.998 0.983,4.962 1.915,5.22l-8.418,0c0.982,-0.279 1.965,-2.244 1.965,-5.241Z" style="fill:#130047;fill-rule:nonzero;"/><path d="M242.113,58.13l0,-2.868c-2.265,2.073 -5.248,3.183 -8.318,3.097c-6.812,0 -10.426,-5.112 -10.426,-10.117c0,-6.611 5.371,-9.759 10.684,-9.759c2.99,-0.067 5.885,1.045 8.06,3.097l0,-1.599c0,-5.421 -1.398,-9.035 -7.077,-9.035c-2.273,2.273 -4.647,6.095 -7.744,6.095c-0.208,0.022 -0.418,-0.005 -0.615,-0.077c-0.196,-0.072 -0.374,-0.188 -0.518,-0.339c-0.145,-0.149 -0.257,-0.327 -0.329,-0.522c-0.071,-0.195 -0.101,-0.403 -0.087,-0.61c0.05,-2.639 4.596,-5.221 9.859,-5.221c7.694,0 11.05,3.822 11.05,9.709l0,12.957c0,2.998 0.982,4.963 1.965,5.221l-6.504,-0.029Zm0,-3.564l0,-4.668c-0.366,-7.077 -4.854,-10.756 -8.726,-10.756c-3.098,0 -5.887,2.324 -5.938,7.128c-0.05,4.804 2.99,10.476 9.551,10.476c1.858,0.036 4.439,-1.205 5.113,-2.18Z" style="fill:#130047;fill-rule:nonzero;"/><path d="M270.659,58.13l-0,-2.868c-2.262,2.073 -5.243,3.184 -8.311,3.097c-6.826,-0.028 -10.411,-5.141 -10.411,-10.117c-0,-6.611 5.37,-9.759 10.691,-9.759c2.987,-0.069 5.881,1.045 8.052,3.097l0,-1.599c0,-5.421 -1.391,-9.035 -7.07,-9.035c-2.273,2.273 -4.646,6.095 -7.744,6.095c-0.209,0.022 -0.42,-0.004 -0.618,-0.076c-0.197,-0.072 -0.376,-0.188 -0.522,-0.34c-0.143,-0.149 -0.255,-0.327 -0.325,-0.522c-0.07,-0.196 -0.099,-0.404 -0.084,-0.61c0.05,-2.639 4.597,-5.221 9.86,-5.221c7.694,0 11.05,3.822 11.05,9.709l-0,12.957c-0,2.998 0.982,4.963 1.964,5.221l-6.532,-0.029Zm-0,-3.564l-0,-4.668c-0.359,-7.077 -4.855,-10.756 -8.727,-10.756c-3.097,0 -5.887,2.324 -5.937,7.128c-0.05,4.804 2.997,10.476 9.551,10.476c1.865,0.036 4.446,-1.205 5.113,-2.18Z" style="fill:#130047;fill-rule:nonzero;"/></g><rect x="76.294" y="0" width="0.975" height="70.588"/><defs><linearGradient id="_Linear1" x1="0" y1="0" x2="1" y2="0" gradientUnits="userSpaceOnUse" gradientTransform="matrix(12.6805,-64.2272,64.2272,12.6805,12.8431,68.9974)"><stop offset="0" style="stop-color:#926ef5;stop-opacity:1"/><stop offset="1" style="stop-color:#6225f4;stop-opacity:1"/></linearGradient><linearGradient id="_Linear2" x1="0" y1="0" x2="1" y2="0" gradientUnits="userSpaceOnUse" gradientTransform="matrix(2.26406e-15,-36.9749,36.9749,2.26406e-15,54.8758,67.3284)"><stop offset="0" style="stop-color:#ddc661;stop-opacity:1"/><stop offset="1" style="stop-color:#ef7697;stop-opacity:1"/></linearGradient><linearGradient id="_Linear3" x1="0" y1="0" x2="1" y2="0" gradientUnits="userSpaceOnUse" gradientTransform="matrix(15.4315,0,0,15.4315,47.1327,15.9087)"><stop offset="0" style="stop-color:#ea8e87;stop-opacity:1"/><stop offset="1" style="stop-color:#7542f4;stop-opacity:1"/></linearGradient><linearGradient id="_Linear4" x1="0" y1="0" x2="1" y2="0" gradientUnits="userSpaceOnUse" gradientTransform="matrix(1.47763e-15,24.1315,-24.1315,1.47763e-15,52.1991,2.56139)"><stop offset="0" style="stop-color:#ed8190;stop-opacity:1"/><stop offset="1" style="stop-color:#e0b86b;stop-opacity:1"/></linearGradient><linearGradient id="_Linear5" x1="0" y1="0" x2="1" y2="0" gradientUnits="userSpaceOnUse" gradientTransform="matrix(1.45814e-15,-23.8132,23.8132,1.45814e-15,57.7292,28.9375)"><stop offset="0" style="stop-color:#ac98f1;stop-opacity:1"/><stop offset="1" style="stop-color:#723ef4;stop-opacity:1"/></linearGradient><linearGradient id="_Linear6" x1="0" y1="0" x2="1" y2="0" gradientUnits="userSpaceOnUse" gradientTransform="matrix(3.76597e-15,-61.503,61.503,3.76597e-15,12.4085,64.49)"><stop offset="0" style="stop-color:#ac98f1;stop-opacity:1"/><stop offset="1" style="stop-color:#7b52f2;stop-opacity:1"/></linearGradient><linearGradient id="_Linear7" x1="0" y1="0" x2="1" y2="0" gradientUnits="userSpaceOnUse" gradientTransform="matrix(1.10865e-15,18.1056,-18.1056,1.10865e-15,232.411,38.3393)"><stop offset="0" style="stop-color:#ed8190;stop-opacity:1"/><stop offset="1" style="stop-color:#e0b86b;stop-opacity:1"/></linearGradient><linearGradient id="_Linear8" x1="0" y1="0" x2="1" y2="0" gradientUnits="userSpaceOnUse" gradientTransform="matrix(1.09416e-15,-17.869,17.869,1.09416e-15,236.592,58.1299)"><stop offset="0" style="stop-color:#ac98f1;stop-opacity:1"/><stop offset="1" style="stop-color:#723ef4;stop-opacity:1"/></linearGradient><linearGradient id="_Linear9" x1="0" y1="0" x2="1" y2="0" gradientUnits="userSpaceOnUse" gradientTransform="matrix(1.10865e-15,18.1056,-18.1056,1.10865e-15,261.323,38.4612)"><stop offset="0" style="stop-color:#ed8190;stop-opacity:1"/><stop offset="1" style="stop-color:#e0b86b;stop-opacity:1"/></linearGradient><linearGradient id="_Linear10" x1="0" y1="0" x2="1" y2="0" gradientUnits="userSpaceOnUse" gradientTransform="matrix(1.09372e-15,-17.8618,17.8618,1.09372e-15,265.503,58.2446)"><stop offset="0" style="stop-color:#ac98f1;stop-opacity:1"/><stop offset="1" style="stop-color:#723ef4;stop-opacity:1"/></linearGradient></defs></svg>