<svg width="274" height="65" viewBox="0 0 274 65" fill="none" xmlns="http://www.w3.org/2000/svg">
<path d="M221.6 39.0999C219.252 37.3574 216.404 36.4177 213.48 36.4199C210.53 36.436 207.663 37.3962 205.299 39.1599C202.934 40.9235 201.197 43.3979 200.34 46.2206C199.484 49.0434 199.554 52.0662 200.54 54.8463C201.526 57.6263 203.376 60.0176 205.82 61.6699C202.18 43.0999 221.56 39.1099 221.6 39.0999Z" fill="url(#paint0_linear_305_1241)"/>
<path d="M221.61 39.1001C221.61 39.1001 222.92 60.6501 205.82 61.6701C208.08 63.2032 210.749 64.0219 213.48 64.0201C216.378 63.9986 219.196 63.0666 221.535 61.3558C223.875 59.645 225.617 57.2421 226.516 54.4868C227.415 51.7316 227.425 48.7635 226.544 46.0023C225.664 43.2411 223.938 40.8265 221.61 39.1001Z" fill="url(#paint1_linear_305_1241)"/>
<path d="M261.91 39.2301C259.559 37.4849 256.708 36.545 253.78 36.5501C250.83 36.5662 247.963 37.5264 245.599 39.29C243.234 41.0536 241.497 43.528 240.64 46.3508C239.784 49.1735 239.854 52.1963 240.84 54.9764C241.826 57.7565 243.676 60.1478 246.12 61.8001C242.51 43.2301 261.91 39.2801 261.91 39.2301Z" fill="url(#paint2_linear_305_1241)"/>
<path d="M261.91 39.23C261.91 39.23 263.22 60.77 246.12 61.8C248.19 63.193 250.6 63.9952 253.092 64.1203C255.584 64.2454 258.063 63.6886 260.262 62.5099C262.461 61.3313 264.297 59.5752 265.572 57.4308C266.848 55.2865 267.514 52.8349 267.5 50.34C267.504 48.1797 267 46.0488 266.029 44.119C265.058 42.1892 263.647 40.5146 261.91 39.23Z" fill="url(#paint3_linear_305_1241)"/>
<path d="M40.83 13.6099C36.72 15.9899 35.64 25.0598 35.64 31.8298V50.2299C35.64 59.4499 27.43 64.0599 19.22 64.0599C11.01 64.0599 2.73 59.4099 2.73 50.2299V20.8799C2.73 16.7099 1.37 13.9699 0 13.6099H12.24C10.87 13.9699 9.5 16.7099 9.5 20.8799V50.2299C9.5 57.9399 15.62 61.7499 21.74 61.7499C27.86 61.7499 34.2 57.8199 34.2 50.2299V31.8298C34.2 24.3398 33.84 15.9899 29.09 13.6099H40.83Z" fill="white"/>
<path d="M67.61 58.54L59.33 41.12L53.33 46.45V56.74C53.33 60.92 54.7 63.66 56.06 64.02H44.21C45.57 63.66 46.94 60.92 46.94 56.74V11.38C46.94 7.20004 45.57 4.47002 44.21 4.11002L53.28 0V45.44L65.09 31.44C67.09 28.85 67.68 26.44 65.81 25.32H77.11L64.37 36.55L74.88 58.55C75.3929 59.8336 76.1806 60.9892 77.1878 61.9359C78.1949 62.8826 79.3971 63.5974 80.71 64.03H68.04C69.41 63.66 69.41 62.36 67.61 58.54Z" fill="white"/>
<path d="M115.35 52.8499C114.12 57.3899 107.64 64.2299 98.5 64.2299C73.8 64.2299 75.24 25.1299 97.63 25.1299C107.71 25.1299 113.33 32.5498 113.33 42.7698H85.39C86.39 51.6998 92.39 61.1398 103.1 61.1398C108.29 61.1398 113.62 56.2399 114.63 52.5699L115.35 52.8499ZM85.35 41.6199H106.91C106.62 32.4799 102.37 26.9999 95.25 26.9999C88.13 26.9999 84.91 33.9899 85.32 41.6199H85.35Z" fill="white"/>
<path d="M150.27 32.4102C150.294 32.7009 150.255 32.9934 150.154 33.2673C150.054 33.5411 149.895 33.7897 149.688 33.9955C149.481 34.2013 149.232 34.3594 148.958 34.4587C148.683 34.558 148.391 34.596 148.1 34.5702C143.78 34.5702 140.47 29.0202 137.38 25.8502C131.9 25.8502 128.52 30.8502 128.52 36.4402V56.7402C128.52 60.9202 129.89 63.6601 131.26 64.0201H119.45C120.81 63.6601 122.18 60.9202 122.18 56.7402V36.4402C122.18 32.2602 120.81 29.5202 119.45 29.1602L128.52 25.1602V28.1602C130.708 26.1787 133.569 25.1059 136.52 25.1602C143.91 25.1302 150.27 28.7302 150.27 32.4102Z" fill="white"/>
<path d="M184.54 56.7402V40.9702C184.54 31.6802 178.7 27.7202 172.94 27.7202C170.956 27.6754 168.994 28.1423 167.242 29.0758C165.491 30.0093 164.009 31.378 162.94 33.0502V56.7402C162.94 60.9202 164.31 63.6601 165.68 64.0201H153.91C155.28 63.6601 156.65 60.9202 156.65 56.7402V36.4402C156.65 32.2602 155.28 29.5202 153.91 29.1602L162.98 25.1602V31.3602C164.728 29.4405 166.855 27.9046 169.227 26.8494C171.599 25.7943 174.164 25.2429 176.76 25.2302C184.03 25.2302 190.87 29.8402 190.87 41.0002V56.7701C190.87 60.9501 192.24 63.6902 193.54 64.0502H181.8C183.17 63.6602 184.54 60.9202 184.54 56.7402Z" fill="white"/>
<path d="M224.21 64.0199V60.0199C221.051 62.9107 216.891 64.4598 212.61 64.3399C203.11 64.3399 198.07 57.2099 198.07 50.2299C198.07 41.0099 205.56 36.6199 212.97 36.6199C217.139 36.5263 221.177 38.0783 224.21 40.9399V38.7099C224.21 31.1499 222.26 26.1099 214.34 26.1099C211.17 29.2799 207.86 34.6099 203.54 34.6099C203.25 34.6396 202.957 34.6028 202.683 34.5023C202.409 34.4018 202.162 34.2402 201.96 34.0299C201.758 33.8219 201.602 33.5737 201.502 33.3015C201.402 33.0293 201.361 32.7392 201.38 32.4499C201.45 28.7699 207.79 25.1699 215.13 25.1699C225.86 25.1699 230.54 30.4999 230.54 38.7099V56.7799C230.54 60.9599 231.91 63.6999 233.28 64.0599L224.21 64.0199ZM224.21 59.0199V52.5399C223.7 42.6699 217.44 37.5399 212.04 37.5399C207.72 37.5399 203.83 40.7799 203.76 47.4799C203.69 54.1799 207.93 62.0899 217.08 62.0899C219.67 62.1399 223.27 60.4099 224.21 59.0499V59.0199Z" fill="white"/>
<path d="M264.02 64.0199V60.0199C260.865 62.911 256.708 64.4604 252.43 64.3399C242.91 64.2999 237.91 57.1699 237.91 50.2299C237.91 41.0099 245.4 36.6199 252.82 36.6199C256.986 36.5246 261.022 38.077 264.05 40.9399V38.7099C264.05 31.1499 262.11 26.1099 254.19 26.1099C251.02 29.2799 247.71 34.6099 243.39 34.6099C243.098 34.6404 242.804 34.604 242.528 34.5035C242.253 34.403 242.004 34.241 241.8 34.0299C241.599 33.8214 241.445 33.5729 241.347 33.3007C241.248 33.0284 241.209 32.7385 241.23 32.4499C241.3 28.7699 247.64 25.1699 254.98 25.1699C265.71 25.1699 270.39 30.4999 270.39 38.7099V56.7799C270.39 60.9599 271.76 63.6999 273.13 64.0599L264.02 64.0199ZM264.02 59.0199V52.5399C263.52 42.6699 257.25 37.5399 251.85 37.5399C247.53 37.5399 243.64 40.7799 243.57 47.4799C243.5 54.1799 247.75 62.0899 256.89 62.0899C259.49 62.1399 263.09 60.4099 264.02 59.0499V59.0199Z" fill="white"/>
<defs>
<linearGradient id="paint0_linear_305_1241" x1="210.68" y1="36.4199" x2="210.68" y2="61.6699" gradientUnits="userSpaceOnUse">
<stop stop-color="#ED8190"/>
<stop offset="1" stop-color="#E0B86B"/>
</linearGradient>
<linearGradient id="paint1_linear_305_1241" x1="216.51" y1="64.0201" x2="216.51" y2="39.1001" gradientUnits="userSpaceOnUse">
<stop stop-color="#AC98F1"/>
<stop offset="1" stop-color="#723EF4"/>
</linearGradient>
<linearGradient id="paint2_linear_305_1241" x1="251" y1="36.5901" x2="251" y2="61.8401" gradientUnits="userSpaceOnUse">
<stop stop-color="#ED8190"/>
<stop offset="1" stop-color="#E0B86B"/>
</linearGradient>
<linearGradient id="paint3_linear_305_1241" x1="256.83" y1="64.18" x2="256.83" y2="39.27" gradientUnits="userSpaceOnUse">
<stop stop-color="#AC98F1"/>
<stop offset="1" stop-color="#723EF4"/>
</linearGradient>
</defs>
</svg>
