<?xml version="1.0" encoding="UTF-8" standalone="no"?><!DOCTYPE svg PUBLIC "-//W3C//DTD SVG 1.1//EN" "http://www.w3.org/Graphics/SVG/1.1/DTD/svg11.dtd"><svg width="100%" height="100%" viewBox="0 0 89 21" version="1.1" xmlns="http://www.w3.org/2000/svg" xmlns:xlink="http://www.w3.org/1999/xlink" xml:space="preserve" xmlns:serif="http://www.serif.com/" style="fill-rule:evenodd;clip-rule:evenodd;stroke-linejoin:round;stroke-miterlimit:2;"><g><path d="M71.588,12.631c-0.758,-0.563 -1.678,-0.866 -2.623,-0.865c-0.953,0.005 -1.879,0.315 -2.643,0.885c-0.764,0.569 -1.325,1.369 -1.602,2.281c-0.276,0.912 -0.254,1.888 0.065,2.786c0.318,0.898 0.916,1.671 1.706,2.205c-1.176,-5.999 5.084,-7.288 5.097,-7.292Z" style="fill:url(#_Linear1);fill-rule:nonzero;"/><path d="M71.592,12.631c-0,0 0.423,6.962 -5.101,7.292c0.73,0.495 1.592,0.759 2.474,0.759c0.936,-0.007 1.847,-0.308 2.602,-0.861c0.756,-0.553 1.319,-1.329 1.61,-2.219c0.29,-0.89 0.293,-1.849 0.009,-2.741c-0.285,-0.892 -0.842,-1.672 -1.594,-2.23Z" style="fill:url(#_Linear2);fill-rule:nonzero;"/><path d="M84.611,12.673c-0.76,-0.563 -1.681,-0.867 -2.627,-0.865c-0.953,0.005 -1.879,0.315 -2.643,0.885c-0.764,0.569 -1.325,1.369 -1.602,2.281c-0.276,0.912 -0.254,1.888 0.065,2.786c0.318,0.898 0.916,1.671 1.706,2.205c-1.167,-5.999 5.101,-7.275 5.101,-7.292Z" style="fill:url(#_Linear3);fill-rule:nonzero;"/><path d="M84.611,12.673c-0,0 0.423,6.959 -5.101,7.292c0.668,0.45 1.447,0.709 2.252,0.749c0.805,0.041 1.606,-0.139 2.316,-0.52c0.711,-0.381 1.304,-0.948 1.716,-1.641c0.412,-0.693 0.627,-1.485 0.623,-2.291c0.001,-0.697 -0.162,-1.386 -0.476,-2.009c-0.313,-0.624 -0.769,-1.165 -1.33,-1.58Z" style="fill:url(#_Linear4);fill-rule:nonzero;"/><path d="M13.19,4.397c-1.328,0.769 -1.676,3.699 -1.676,5.886l-0,5.944c-0,2.978 -2.653,4.468 -5.305,4.468c-2.652,-0 -5.327,-1.502 -5.327,-4.468l-0,-9.482c-0,-1.347 -0.439,-2.232 -0.882,-2.348l3.954,-0c-0.442,0.116 -0.885,1.001 -0.885,2.348l-0,9.482c-0,2.491 1.977,3.721 3.954,3.721c1.977,0 4.025,-1.269 4.025,-3.721l0,-5.944c0,-2.42 -0.116,-5.117 -1.65,-5.886l3.792,-0Z" style="fill:#130047;fill-rule:nonzero;"/><path d="M21.842,18.911l-2.675,-5.627l-1.939,1.722l0,3.324c0,1.35 0.443,2.236 0.882,2.352l-3.828,-0c0.439,-0.116 0.882,-1.002 0.882,-2.352l0,-14.654c0,-1.35 -0.443,-2.232 -0.882,-2.348l2.93,-1.328l0,14.679l3.815,-4.522c0.647,-0.837 0.837,-1.615 0.233,-1.977l3.651,-0l-4.116,3.628l3.395,7.107c0.166,0.414 0.42,0.788 0.746,1.094c0.325,0.305 0.713,0.536 1.138,0.676l-4.094,0c0.443,-0.119 0.443,-0.539 -0.138,-1.774Z" style="fill:#130047;fill-rule:nonzero;"/><path d="M37.264,17.073c-0.397,1.467 -2.491,3.677 -5.443,3.677c-7.98,-0 -7.514,-12.632 -0.281,-12.632c3.256,0 5.072,2.397 5.072,5.699l-9.026,-0c0.323,2.885 2.261,5.934 5.721,5.934c1.676,0 3.398,-1.583 3.724,-2.768l0.233,0.09Zm-9.701,-3.628l6.975,0c-0.094,-2.952 -1.467,-4.723 -3.767,-4.723c-2.3,0 -3.341,2.259 -3.208,4.723Z" style="fill:#130047;fill-rule:nonzero;"/><path d="M48.545,10.47c0.008,0.094 -0.005,0.189 -0.037,0.277c-0.033,0.088 -0.084,0.169 -0.151,0.235c-0.067,0.067 -0.147,0.118 -0.236,0.15c-0.089,0.032 -0.183,0.044 -0.277,0.036c-1.396,-0 -2.465,-1.793 -3.463,-2.817c-1.77,-0 -2.862,1.615 -2.862,3.421l-0,6.558c-0,1.35 0.442,2.236 0.885,2.352l-3.815,-0c0.439,-0.116 0.882,-1.002 0.882,-2.352l-0,-6.558c-0,-1.35 -0.443,-2.235 -0.882,-2.352l2.93,-1.292l-0,0.969c0.707,-0.64 1.631,-0.987 2.584,-0.969c2.387,-0.01 4.442,1.153 4.442,2.342Z" style="fill:#130047;fill-rule:nonzero;"/><path d="M59.616,18.33l0,-5.095c0,-3.001 -1.887,-4.28 -3.747,-4.28c-0.641,-0.014 -1.275,0.136 -1.841,0.438c-0.566,0.302 -1.045,0.744 -1.39,1.284l0,7.653c0,1.35 0.443,2.236 0.885,2.352l-3.802,-0c0.443,-0.116 0.885,-1.002 0.885,-2.352l0,-6.558c0,-1.35 -0.442,-2.235 -0.885,-2.352l2.93,-1.292l0,2.003c0.565,-0.62 1.252,-1.116 2.018,-1.457c0.766,-0.341 1.595,-0.519 2.434,-0.523c2.348,-0 4.558,1.489 4.558,5.094l0,5.095c0,1.35 0.443,2.235 0.863,2.352l-3.793,-0c0.443,-0.126 0.885,-1.012 0.885,-2.362Z" style="fill:#130047;fill-rule:nonzero;"/><path d="M72.432,20.682l-0,-1.292c-1.021,0.933 -2.365,1.434 -3.748,1.395c-3.069,0 -4.697,-2.303 -4.697,-4.558c-0,-2.979 2.42,-4.397 4.813,-4.397c1.347,-0.03 2.652,0.471 3.632,1.396l-0,-0.721c-0,-2.442 -0.63,-4.07 -3.189,-4.07c-1.024,1.024 -2.093,2.746 -3.489,2.746c-0.094,0.009 -0.188,-0.002 -0.277,-0.035c-0.088,-0.032 -0.168,-0.085 -0.233,-0.153c-0.066,-0.067 -0.116,-0.147 -0.148,-0.235c-0.033,-0.088 -0.046,-0.181 -0.04,-0.275c0.023,-1.189 2.071,-2.352 4.442,-2.352c3.467,0 4.978,1.722 4.978,4.374l0,5.838c0,1.35 0.443,2.235 0.886,2.352l-2.93,-0.013Zm-0,-1.606l-0,-2.103c-0.165,-3.188 -2.187,-4.846 -3.932,-4.846c-1.396,0 -2.652,1.047 -2.675,3.212c-0.022,2.164 1.347,4.719 4.303,4.719c0.837,0.016 2,-0.542 2.304,-0.982Z" style="fill:#130047;fill-rule:nonzero;"/><path d="M85.292,20.682l0,-1.292c-1.019,0.934 -2.362,1.434 -3.744,1.395c-3.075,-0.013 -4.691,-2.316 -4.691,-4.558c0,-2.979 2.42,-4.397 4.817,-4.397c1.346,-0.031 2.65,0.471 3.628,1.396l-0,-0.721c-0,-2.442 -0.627,-4.07 -3.185,-4.07c-1.024,1.024 -2.094,2.746 -3.489,2.746c-0.095,0.01 -0.19,-0.002 -0.279,-0.035c-0.089,-0.032 -0.169,-0.084 -0.235,-0.153c-0.065,-0.067 -0.115,-0.147 -0.146,-0.235c-0.032,-0.088 -0.045,-0.182 -0.038,-0.275c0.023,-1.189 2.071,-2.352 4.442,-2.352c3.466,0 4.978,1.722 4.978,4.374l0,5.838c0,1.35 0.443,2.235 0.885,2.352l-2.943,-0.013Zm0,-1.606l0,-2.103c-0.161,-3.188 -2.187,-4.846 -3.931,-4.846c-1.396,0 -2.653,1.047 -2.675,3.212c-0.023,2.164 1.35,4.719 4.303,4.719c0.84,0.016 2.003,-0.542 2.303,-0.982Z" style="fill:#130047;fill-rule:nonzero;"/></g><defs><linearGradient id="_Linear1" x1="0" y1="0" x2="1" y2="0" gradientUnits="userSpaceOnUse" gradientTransform="matrix(4.99477e-16,8.15707,-8.15707,4.99477e-16,68.0607,11.7656)"><stop offset="0" style="stop-color:#ed8190;stop-opacity:1"/><stop offset="1" style="stop-color:#e0b86b;stop-opacity:1"/></linearGradient><linearGradient id="_Linear2" x1="0" y1="0" x2="1" y2="0" gradientUnits="userSpaceOnUse" gradientTransform="matrix(4.92949e-16,-8.05047,8.05047,4.92949e-16,69.9441,20.6818)"><stop offset="0" style="stop-color:#ac98f1;stop-opacity:1"/><stop offset="1" style="stop-color:#723ef4;stop-opacity:1"/></linearGradient><linearGradient id="_Linear3" x1="0" y1="0" x2="1" y2="0" gradientUnits="userSpaceOnUse" gradientTransform="matrix(4.99477e-16,8.15707,-8.15707,4.99477e-16,81.0861,11.8205)"><stop offset="0" style="stop-color:#ed8190;stop-opacity:1"/><stop offset="1" style="stop-color:#e0b86b;stop-opacity:1"/></linearGradient><linearGradient id="_Linear4" x1="0" y1="0" x2="1" y2="0" gradientUnits="userSpaceOnUse" gradientTransform="matrix(4.92751e-16,-8.04723,8.04723,4.92751e-16,82.9695,20.7335)"><stop offset="0" style="stop-color:#ac98f1;stop-opacity:1"/><stop offset="1" style="stop-color:#723ef4;stop-opacity:1"/></linearGradient></defs></svg>